<?xml version="1.0" encoding="UTF-8"?>
<svg version="1.1" xmlns="http://www.w3.org/2000/svg" width="200" height="200">
<path d="M0 0 C66 0 132 0 200 0 C200 66 200 132 200 200 C134 200 68 200 0 200 C0 134 0 68 0 0 Z " fill="#FDFDFD" transform="translate(0,0)"/>
<path d="M0 0 C3.3 0 6.6 0 10 0 C10 1.65 10 3.3 10 5 C12.31 5 14.62 5 17 5 C17 6.98 17 8.96 17 11 C20.63 11 24.26 11 28 11 C28 12.98 28 14.96 28 17 C32.29 17 36.58 17 41 17 C41 24.59 41 32.18 41 40 C42.65 40 44.3 40 46 40 C46 38.02 46 36.04 46 34 C57.88 34 69.76 34 82 34 C82 35.98 82 37.96 82 40 C87.28 40 92.56 40 98 40 C98 41.98 98 43.96 98 46 C102.29 46 106.58 46 111 46 C111 47.98 111 49.96 111 52 C112.65 52 114.3 52 116 52 C116 53.98 116 55.96 116 58 C117.98 58 119.96 58 122 58 C122 59.98 122 61.96 122 64 C123.98 64 125.96 64 128 64 C128 67.63 128 71.26 128 75 C129.98 75 131.96 75 134 75 C134 78.96 134 82.92 134 87 C135.98 87 137.96 87 140 87 C140 102.51 140 118.02 140 134 C138.02 134 136.04 134 134 134 C134 137.96 134 141.92 134 146 C132.02 146 130.04 146 128 146 C128 149.96 128 153.92 128 158 C126.02 158 124.04 158 122 158 C122 159.98 122 161.96 122 164 C120.35 164 118.7 164 117 164 C117 165.65 117 167.3 117 169 C114.69 169 112.38 169 110 169 C110 170.98 110 172.96 110 175 C106.04 175 102.08 175 98 175 C98 176.98 98 178.96 98 181 C92.39 181 86.78 181 81 181 C81 182.98 81 184.96 81 187 C67.47 187 53.94 187 40 187 C40 184.69 40 182.38 40 180 C36.37 180 32.74 180 29 180 C29 178.35 29 176.7 29 175 C32.63 175 36.26 175 40 175 C40.495 177.475 40.495 177.475 41 180 C45.95 180 50.9 180 56 180 C56 178.02 56 176.04 56 174 C57.65 173.67 59.3 173.34 61 173 C61.33 172.01 61.66 171.02 62 170 C60.35 169.67 58.7 169.34 57 169 C57 167.02 57 165.04 57 163 C58.65 163 60.3 163 62 163 C62 161.35 62 159.7 62 158 C60.02 158 58.04 158 56 158 C55.95758277 155.66705225 55.95907063 153.33297433 56 151 C57 150 57 150 59.5625 149.9375 C60.366875 149.958125 61.17125 149.97875 62 150 C62 149.01 62 148.02 62 147 C60.35 147 58.7 147 57 147 C56.375 143.625 56.375 143.625 56 140 C56.66 139.34 57.32 138.68 58 138 C59.32 138 60.64 138 62 138 C62 136.68 62 135.36 62 134 C58.7 134 55.4 134 52 134 C52 132.02 52 130.04 52 128 C50.02 128 48.04 128 46 128 C46 126.02 46 124.04 46 122 C42.04 122 38.08 122 34 122 C34 123.98 34 125.96 34 128 C32.02 128 30.04 128 28 128 C28 129.98 28 131.96 28 134 C26.02 134 24.04 134 22 134 C22 135.65 22 137.3 22 139 C20.35 139 18.7 139 17 139 C17 137.35 17 135.7 17 134 C15.35 134.33 13.7 134.66 12 135 C11.67 136.65 11.34 138.3 11 140 C9.02 140 7.04 140 5 140 C5.33 141.65 5.66 143.3 6 145 C7.32 145.33 8.64 145.66 10 146 C10 147.65 10 149.3 10 151 C8.35 151 6.7 151 5 151 C5 152.98 5 154.96 5 157 C3.35 157 1.7 157 0 157 C0 153.37 0 149.74 0 146 C-2.31 146 -4.62 146 -7 146 C-7 142.04 -7 138.08 -7 134 C-8.65 134 -10.3 134 -12 134 C-13.1760003 131.6479994 -13.12084541 130.26265599 -13.11352539 127.64208984 C-13.11344986 126.74130707 -13.11337433 125.84052429 -13.11329651 124.91244507 C-13.10813522 123.93844757 -13.10297394 122.96445007 -13.09765625 121.9609375 C-13.0962413 120.96494537 -13.09482635 119.96895325 -13.09336853 118.94277954 C-13.08775936 115.75348947 -13.0752053 112.56426894 -13.0625 109.375 C-13.05748618 107.21614685 -13.05292307 105.05729259 -13.04882812 102.8984375 C-13.03778695 97.5989345 -13.02103988 92.29947222 -13 87 C-11.02 87 -9.04 87 -7 87 C-7 83.04 -7 79.08 -7 75 C-5.02 75 -3.04 75 -1 75 C-1 73.35 -1 71.7 -1 70 C-6.94 70 -12.88 70 -19 70 C-19 68.02 -19 66.04 -19 64 C-20.65 64 -22.3 64 -24 64 C-24 58.39 -24 52.78 -24 47 C-22.35 47 -20.7 47 -19 47 C-19 50.63 -19 54.26 -19 58 C-16.69 58 -14.38 58 -12 58 C-12 54.04 -12 50.08 -12 46 C-13.98 46 -15.96 46 -18 46 C-18 44.35 -18 42.7 -18 41 C-12.06 41 -6.12 41 0 41 C0 27.47 0 13.94 0 0 Z " fill="#83837E" transform="translate(36,1)"/>
<path d="M0 0 C1.98 0 3.96 0 6 0 C6 1.65 6 3.3 6 5 C9.96 5 13.92 5 18 5 C18 8.63 18 12.26 18 16 C19.98 16 21.96 16 24 16 C24 19.96 24 23.92 24 28 C25.98 28 27.96 28 30 28 C30 43.51 30 59.02 30 75 C28.02 75 26.04 75 24 75 C24 78.96 24 82.92 24 87 C22.02 87 20.04 87 18 87 C18 90.96 18 94.92 18 99 C16.02 99 14.04 99 12 99 C12 100.98 12 102.96 12 105 C10.35 105 8.7 105 7 105 C7 106.65 7 108.3 7 110 C-1.25 110 -9.5 110 -18 110 C-18.33 108.68 -18.66 107.36 -19 106 C-21.49034386 104.70339566 -21.49034386 104.70339566 -24 104 C-24.03867188 102.84371094 -24.03867188 102.84371094 -24.078125 101.6640625 C-24.16320312 100.15972656 -24.16320312 100.15972656 -24.25 98.625 C-24.29640625 97.62726563 -24.3428125 96.62953125 -24.390625 95.6015625 C-24.59171875 94.74304688 -24.7928125 93.88453125 -25 93 C-26.31647119 92.30062468 -27.65022151 91.63270867 -29 91 C-29.609375 88.8359375 -29.609375 88.8359375 -29.75 86.375 C-29.80671875 85.55773437 -29.8634375 84.74046875 -29.921875 83.8984375 C-29.94765625 83.27195312 -29.9734375 82.64546875 -30 82 C-31.98 81.34 -33.96 80.68 -36 80 C-35.67 77.03 -35.34 74.06 -35 71 C-32.525 70.01 -32.525 70.01 -30 69 C-29.67 55.47 -29.34 41.94 -29 28 C-27.35 28 -25.7 28 -24 28 C-24 26.02 -24 24.04 -24 22 C-22.02 21.67 -20.04 21.34 -18 21 C-18 19.35 -18 17.7 -18 16 C-16.02 16 -14.04 16 -12 16 C-12 14.35 -12 12.7 -12 11 C-10.02 11 -8.04 11 -6 11 C-6 9.02 -6 7.04 -6 5 C-4.02 5 -2.04 5 0 5 C0 3.35 0 1.7 0 0 Z " fill="#BFBFC0" transform="translate(146,60)"/>
<path d="M0 0 C3.3 0 6.6 0 10 0 C10 1.65 10 3.3 10 5 C12.31 5 14.62 5 17 5 C17 6.98 17 8.96 17 11 C20.63 11 24.26 11 28 11 C28 12.98 28 14.96 28 17 C32.29 17 36.58 17 41 17 C41 24.59 41 32.18 41 40 C42.65 40 44.3 40 46 40 C46 38.02 46 36.04 46 34 C57.88 34 69.76 34 82 34 C82 35.98 82 37.96 82 40 C87.28 40 92.56 40 98 40 C98 41.98 98 43.96 98 46 C102.29 46 106.58 46 111 46 C111 47.98 111 49.96 111 52 C112.65 52 114.3 52 116 52 C116 53.98 116 55.96 116 58 C117.98 58 119.96 58 122 58 C122 59.98 122 61.96 122 64 C120.02 64 118.04 64 116 64 C116 62.35 116 60.7 116 59 C114.02 59 112.04 59 110 59 C110 60.65 110 62.3 110 64 C108.02 64 106.04 64 104 64 C104 65.98 104 67.96 104 70 C102.02 70 100.04 70 98 70 C98 71.65 98 73.3 98 75 C96.02 75 94.04 75 92 75 C92.185625 75.804375 92.37125 76.60875 92.5625 77.4375 C92.7790625 78.7059375 92.7790625 78.7059375 93 80 C92 81 92 81 88.9375 81.0625 C87.968125 81.041875 86.99875 81.02125 86 81 C86 82.98 86 84.96 86 87 C84.35 87 82.7 87 81 87 C81 90.96 81 94.92 81 99 C79.02 99 77.04 99 75 99 C75 95.04 75 91.08 75 87 C67.41 87 59.82 87 52 87 C52 77.43 52 67.86 52 58 C50.35 58 48.7 58 47 58 C46 57 46 57 45.90234375 54.49609375 C45.91394531 53.48675781 45.92554687 52.47742187 45.9375 51.4375 C45.94652344 50.42558594 45.95554687 49.41367187 45.96484375 48.37109375 C45.97644531 47.58863281 45.98804687 46.80617187 46 46 C44.02 46 42.04 46 40 46 C40 57.55 40 69.1 40 81 C38.02 81 36.04 81 34 81 C34 82.98 34 84.96 34 87 C28.06 87 22.12 87 16 87 C16 85.02 16 83.04 16 81 C14.35 81 12.7 81 11 81 C11 75.39 11 69.78 11 64 C12.65 64 14.3 64 16 64 C16 67.96 16 71.92 16 76 C18.31 76 20.62 76 23 76 C23 72.04 23 68.08 23 64 C21.02 64 19.04 64 17 64 C16.67 63.67 16.34 63.34 16 63 C16 61.35 16 59.7 16 58 C21.94 58 27.88 58 34 58 C34 50.08 34 42.16 34 34 C30.37 34 26.74 34 23 34 C22.67 32.35 22.34 30.7 22 29 C20.35 28.67 18.7 28.34 17 28 C17 26.35 17 24.7 17 23 C13.04 23 9.08 23 5 23 C5 36.53 5 50.06 5 64 C3.02 64 1.04 64 -1 64 C-1 65.65 -1 67.3 -1 69 C-6.61 69 -12.22 69 -18 69 C-18 67.35 -18 65.7 -18 64 C-19.98 64 -21.96 64 -24 64 C-24 58.39 -24 52.78 -24 47 C-22.35 47 -20.7 47 -19 47 C-19 50.63 -19 54.26 -19 58 C-16.69 58 -14.38 58 -12 58 C-12 54.04 -12 50.08 -12 46 C-13.98 46 -15.96 46 -18 46 C-18 44.35 -18 42.7 -18 41 C-12.06 41 -6.12 41 0 41 C0 27.47 0 13.94 0 0 Z " fill="#C0C1B9" transform="translate(36,1)"/>
<path d="M0 0 C3.96 0 7.92 0 12 0 C12 1.65 12 3.3 12 5 C12.804375 4.979375 13.60875 4.95875 14.4375 4.9375 C17 5 17 5 18 6 C18 7.65 18 9.3 18 11 C21.63 11 25.26 11 29 11 C29 18.92 29 26.84 29 35 C23.06 35 17.12 35 11 35 C11.495 37.475 11.495 37.475 12 40 C14.97 40.495 14.97 40.495 18 41 C18 44.96 18 48.92 18 53 C15.69 53 13.38 53 11 53 C11 49.04 11 45.08 11 41 C9.35 41 7.7 41 6 41 C6 46.61 6 52.22 6 58 C7.65 58 9.3 58 11 58 C11 59.98 11 61.96 11 64 C16.94 64 22.88 64 29 64 C29 62.02 29 60.04 29 58 C30.98 58 32.96 58 35 58 C35 46.45 35 34.9 35 23 C36.98 23 38.96 23 41 23 C41.495 28.445 41.495 28.445 42 34 C43.65 34.33 45.3 34.66 47 35 C47.02485364 39.02017255 47.04293238 43.04031488 47.05493164 47.06054688 C47.05993786 48.4261147 47.06674482 49.79167724 47.07543945 51.15722656 C47.08766831 53.12823118 47.09272866 55.0992761 47.09765625 57.0703125 C47.10289307 58.25383301 47.10812988 59.43735352 47.11352539 60.65673828 C47.00470177 63.86153532 46.60517483 66.85476612 46 70 C44.35 70.33 42.7 70.66 41 71 C41 72.65 41 74.3 41 76 C39.02 76 37.04 76 35 76 C35 81.61 35 87.22 35 93 C33.02 93 31.04 93 29 93 C29 91.35 29 89.7 29 88 C27.02 88 25.04 88 23 88 C23 89.65 23 91.3 23 93 C21.35 93 19.7 93 18 93 C18 91.35 18 89.7 18 88 C15.69 88 13.38 88 11 88 C11 89.65 11 91.3 11 93 C9.35 93 7.7 93 6 93 C6 91.35 6 89.7 6 88 C4.35 88 2.7 88 1 88 C1 89.98 1 91.96 1 94 C2.65 94 4.3 94 6 94 C6 95.65 6 97.3 6 99 C4.02 99 2.04 99 0 99 C0 97.35 0 95.7 0 94 C-1.98 94 -3.96 94 -6 94 C-6 95.65 -6 97.3 -6 99 C-4.35 99 -2.7 99 -1 99 C-1 100.98 -1 102.96 -1 105 C-2.98 105.495 -2.98 105.495 -5 106 C-5.33 107.65 -5.66 109.3 -6 111 C-7.65 111 -9.3 111 -11 111 C-11 114.63 -11 118.26 -11 122 C-9.35 122 -7.7 122 -6 122 C-6 122.33 -6 122.66 -6 123 C-7.98 123 -9.96 123 -12 123 C-12 119.04 -12 115.08 -12 111 C-13.65 111 -15.3 111 -17 111 C-18.1760003 108.6479994 -18.12084541 107.26265599 -18.11352539 104.64208984 C-18.11344986 103.74130707 -18.11337433 102.84052429 -18.11329651 101.91244507 C-18.10813522 100.93844757 -18.10297394 99.96445007 -18.09765625 98.9609375 C-18.0962413 97.96494537 -18.09482635 96.96895325 -18.09336853 95.94277954 C-18.08775936 92.75348947 -18.0752053 89.56426894 -18.0625 86.375 C-18.05748618 84.21614685 -18.05292307 82.05729259 -18.04882812 79.8984375 C-18.03778695 74.5989345 -18.02103988 69.29947222 -18 64 C-16.02 64 -14.04 64 -12 64 C-12 60.04 -12 56.08 -12 52 C-10.02 52 -8.04 52 -6 52 C-6 50.35 -6 48.7 -6 47 C-11.94 47 -17.88 47 -24 47 C-24 45.02 -24 43.04 -24 41 C-23.67 41 -23.34 41 -23 41 C-23 42.65 -23 44.3 -23 46 C-17.39 46 -11.78 46 -6 46 C-6 44.35 -6 42.7 -6 41 C-4.02 41 -2.04 41 0 41 C0 27.47 0 13.94 0 0 Z " fill="#C0BFC0" transform="translate(41,24)"/>
<path d="M0 0 C3.96 0 7.92 0 12 0 C12 1.98 12 3.96 12 6 C13.98 6 15.96 6 18 6 C18 7.98 18 9.96 18 12 C21.3 12 24.6 12 28 12 C28 13.32 28 14.64 28 16 C26.35 16.66 24.7 17.32 23 18 C23 20.31 23 22.62 23 25 C24.65 25 26.3 25 28 25 C28 25.99 28 26.98 28 28 C26.35 28.33 24.7 28.66 23 29 C22.67 31.31 22.34 33.62 22 36 C23.98 36 25.96 36 28 36 C28 37.65 28 39.3 28 41 C26.35 41 24.7 41 23 41 C23.495 43.97 23.495 43.97 24 47 C25.32 47.33 26.64 47.66 28 48 C27.67 49.32 27.34 50.64 27 52 C25.35 52 23.7 52 22 52 C22 53.98 22 55.96 22 58 C17.05 58 12.1 58 7 58 C6.505 56.02 6.505 56.02 6 54 C2.37 53.67 -1.26 53.34 -5 53 C-5 54.65 -5 56.3 -5 58 C-1.37 58 2.26 58 6 58 C6 60.31 6 62.62 6 65 C5.67 65 5.34 65 5 65 C5 63.02 5 61.04 5 59 C1.37 59 -2.26 59 -6 59 C-6 57.02 -6 55.04 -6 53 C-9.96 53 -13.92 53 -18 53 C-18 51.35 -18 49.7 -18 48 C-18.804375 48.020625 -19.60875 48.04125 -20.4375 48.0625 C-23 48 -23 48 -24 47 C-24.04063832 45.33382885 -24.042721 43.66611905 -24 42 C-25.65 42 -27.3 42 -29 42 C-29 40.02 -29 38.04 -29 36 C-30.98 36 -32.96 36 -35 36 C-35 32.04 -35 28.08 -35 24 C-34.67 24 -34.34 24 -34 24 C-34 27.63 -34 31.26 -34 35 C-32.35 35 -30.7 35 -29 35 C-29 33.02 -29 31.04 -29 29 C-27.35 29 -25.7 29 -24 29 C-24 27.35 -24 25.7 -24 24 C-25.65 23.67 -27.3 23.34 -29 23 C-29 21.35 -29 19.7 -29 18 C-27.02 18 -25.04 18 -23 18 C-23.020625 17.195625 -23.04125 16.39125 -23.0625 15.5625 C-23 13 -23 13 -22 12 C-20.33382885 11.95936168 -18.66611905 11.957279 -17 12 C-17 13.65 -17 15.3 -17 17 C-15.35 17 -13.7 17 -12 17 C-12 15.35 -12 13.7 -12 12 C-10.02 12 -8.04 12 -6 12 C-6 10.02 -6 8.04 -6 6 C-4.02 6 -2.04 6 0 6 C0 4.02 0 2.04 0 0 Z " fill="#C0BFC0" transform="translate(70,123)"/>
<path d="M0 0 C3.3 0 6.6 0 10 0 C10 1.65 10 3.3 10 5 C12.31 5 14.62 5 17 5 C17 6.98 17 8.96 17 11 C20.63 11 24.26 11 28 11 C28 12.98 28 14.96 28 17 C31.96 17 35.92 17 40 17 C40 24.92 40 32.84 40 41 C41.98 41 43.96 41 46 41 C46 42.65 46 44.3 46 46 C44.02 46 42.04 46 40 46 C40 57.55 40 69.1 40 81 C38.02 81 36.04 81 34 81 C34 82.98 34 84.96 34 87 C28.06 87 22.12 87 16 87 C16 85.02 16 83.04 16 81 C14.35 81 12.7 81 11 81 C11 75.39 11 69.78 11 64 C12.65 64 14.3 64 16 64 C16 67.96 16 71.92 16 76 C18.31 76 20.62 76 23 76 C23 72.04 23 68.08 23 64 C21.02 64 19.04 64 17 64 C16.67 63.67 16.34 63.34 16 63 C16 61.35 16 59.7 16 58 C21.94 58 27.88 58 34 58 C34 50.08 34 42.16 34 34 C30.37 34 26.74 34 23 34 C22.67 32.35 22.34 30.7 22 29 C20.35 28.67 18.7 28.34 17 28 C17 26.35 17 24.7 17 23 C13.04 23 9.08 23 5 23 C5 36.53 5 50.06 5 64 C3.02 64 1.04 64 -1 64 C-1 65.65 -1 67.3 -1 69 C-6.61 69 -12.22 69 -18 69 C-18 67.35 -18 65.7 -18 64 C-19.98 64 -21.96 64 -24 64 C-24 58.39 -24 52.78 -24 47 C-22.35 47 -20.7 47 -19 47 C-19 50.63 -19 54.26 -19 58 C-16.69 58 -14.38 58 -12 58 C-12 54.04 -12 50.08 -12 46 C-13.98 46 -15.96 46 -18 46 C-18 44.35 -18 42.7 -18 41 C-12.06 41 -6.12 41 0 41 C0 27.47 0 13.94 0 0 Z " fill="#070808" transform="translate(36,1)"/>
<path d="M0 0 C1.98 0 3.96 0 6 0 C6 1.65 6 3.3 6 5 C5.21625 5.144375 4.4325 5.28875 3.625 5.4375 C0.84843237 6.71536857 0.84843237 6.71536857 0.22265625 9.13671875 C-0.26835609 11.41974691 -0.68112401 13.68695927 -1 16 C1.31 16.66 3.62 17.32 6 18 C6.02578125 18.62648437 6.0515625 19.25296875 6.078125 19.8984375 C6.13484375 20.71570313 6.1915625 21.53296875 6.25 22.375 C6.29640625 23.18710938 6.3428125 23.99921875 6.390625 24.8359375 C6.69226563 25.90714844 6.69226563 25.90714844 7 27 C7.66 27.309375 8.32 27.61875 9 27.9375 C9.66 28.288125 10.32 28.63875 11 29 C11.609375 31.6015625 11.609375 31.6015625 11.75 34.625 C11.80671875 35.62789062 11.8634375 36.63078125 11.921875 37.6640625 C11.94765625 38.43492187 11.9734375 39.20578125 12 40 C13.65 40.66 15.3 41.32 17 42 C17 43.32 17 44.64 17 46 C22.94 46 28.88 46 35 46 C35 47.98 35 49.96 35 52 C31.04 52 27.08 52 23 52 C23 53.98 23 55.96 23 58 C17.39 58 11.78 58 6 58 C6 59.98 6 61.96 6 64 C-7.53 64 -21.06 64 -35 64 C-35 61.69 -35 59.38 -35 57 C-38.63 57 -42.26 57 -46 57 C-46 55.35 -46 53.7 -46 52 C-42.37 52 -38.74 52 -35 52 C-34.67 53.65 -34.34 55.3 -34 57 C-29.05 57 -24.1 57 -19 57 C-19 55.02 -19 53.04 -19 51 C-16.525 50.505 -16.525 50.505 -14 50 C-13.67 49.01 -13.34 48.02 -13 47 C-14.65 46.67 -16.3 46.34 -18 46 C-18 44.02 -18 42.04 -18 40 C-16.35 40 -14.7 40 -13 40 C-13 38.35 -13 36.7 -13 35 C-14.98 35 -16.96 35 -19 35 C-19.04241723 32.66705225 -19.04092937 30.33297433 -19 28 C-18 27 -18 27 -15.4375 26.9375 C-14.2309375 26.9684375 -14.2309375 26.9684375 -13 27 C-13 26.01 -13 25.02 -13 24 C-14.65 24 -16.3 24 -18 24 C-18.625 20.625 -18.625 20.625 -19 17 C-18.34 16.34 -17.68 15.68 -17 15 C-15.68 15 -14.36 15 -13 15 C-13 13.68 -13 12.36 -13 11 C-16.3 11 -19.6 11 -23 11 C-23 9.02 -23 7.04 -23 5 C-15.41 5 -7.82 5 0 5 C0 3.35 0 1.7 0 0 Z " fill="#CED085" transform="translate(111,124)"/>
<path d="M0 0 C3.96 0 7.92 0 12 0 C12 1.65 12 3.3 12 5 C12.804375 4.979375 13.60875 4.95875 14.4375 4.9375 C17 5 17 5 18 6 C18 7.65 18 9.3 18 11 C21.63 11 25.26 11 29 11 C29 18.92 29 26.84 29 35 C23.06 35 17.12 35 11 35 C11.495 37.475 11.495 37.475 12 40 C14.97 40.495 14.97 40.495 18 41 C18 44.96 18 48.92 18 53 C15.69 53 13.38 53 11 53 C11 49.04 11 45.08 11 41 C9.35 41 7.7 41 6 41 C6 46.61 6 52.22 6 58 C7.65 58 9.3 58 11 58 C11 59.98 11 61.96 11 64 C8.03 63.505 8.03 63.505 5 63 C4.67 62.01 4.34 61.02 4 60 C1.03 59.67 -1.94 59.34 -5 59 C-5.38218767 57.34385343 -5.71395102 55.67542976 -6 54 C-5 53 -5 53 -2.4375 52.9375 C-1.633125 52.958125 -0.82875 52.97875 0 53 C-1.06645115 51.70366379 -1.06645115 51.70366379 -3.5625 51.9375 C-4.366875 51.958125 -5.17125 51.97875 -6 52 C-6 50.35 -6 48.7 -6 47 C-11.94 47 -17.88 47 -24 47 C-24 45.02 -24 43.04 -24 41 C-23.67 41 -23.34 41 -23 41 C-23 42.65 -23 44.3 -23 46 C-17.39 46 -11.78 46 -6 46 C-6 44.35 -6 42.7 -6 41 C-4.02 41 -2.04 41 0 41 C0 27.47 0 13.94 0 0 Z " fill="#47A85C" transform="translate(41,24)"/>
<path d="M0 0 C1.98 0 3.96 0 6 0 C6 7.59 6 15.18 6 23 C2.04 23 -1.92 23 -6 23 C-6 24.98 -6 26.96 -6 29 C-7.98 29 -9.96 29 -12 29 C-12 30.98 -12 32.96 -12 35 C-13.98 35 -15.96 35 -18 35 C-18 36.65 -18 38.3 -18 40 C-19.65 40 -21.3 40 -23 40 C-23 38.35 -23 36.7 -23 35 C-25.475 35.495 -25.475 35.495 -28 36 C-28.33 37.65 -28.66 39.3 -29 41 C-30.98 41 -32.96 41 -35 41 C-34.67 42.65 -34.34 44.3 -34 46 C-32.68 46.33 -31.36 46.66 -30 47 C-30 48.65 -30 50.3 -30 52 C-31.65 52 -33.3 52 -35 52 C-35 53.98 -35 55.96 -35 58 C-36.65 58 -38.3 58 -40 58 C-40.33 54.37 -40.66 50.74 -41 47 C-42.65 46.67 -44.3 46.34 -46 46 C-46 42.37 -46 38.74 -46 35 C-44.35 35 -42.7 35 -41 35 C-41 33.35 -41 31.7 -41 30 C-39.35 29.67 -37.7 29.34 -36 29 C-36 27.02 -36 25.04 -36 23 C-37.65 23 -39.3 23 -41 23 C-41 21.35 -41 19.7 -41 18 C-39.02 18 -37.04 18 -35 18 C-35 19.65 -35 21.3 -35 23 C-33.02 23 -31.04 23 -29 23 C-29 21.35 -29 19.7 -29 18 C-30.65 18 -32.3 18 -34 18 C-34 16.02 -34 14.04 -34 12 C-32.35 12 -30.7 12 -29 12 C-29 13.65 -29 15.3 -29 17 C-27.35 17 -25.7 17 -24 17 C-24 15.35 -24 13.7 -24 12 C-21.69 12 -19.38 12 -17 12 C-17 13.65 -17 15.3 -17 17 C-15.35 17 -13.7 17 -12 17 C-12 15.35 -12 13.7 -12 12 C-10.02 12 -8.04 12 -6 12 C-6 13.65 -6 15.3 -6 17 C-4.02 17 -2.04 17 0 17 C0 11.39 0 5.78 0 0 Z " fill="#9C9C9C" transform="translate(76,100)"/>
<path d="M0 0 C2.475 0.495 2.475 0.495 5 1 C5.495 5.95 5.495 5.95 6 11 C8.475 11.495 8.475 11.495 11 12 C11 15.63 11 19.26 11 23 C14.3 23.33 17.6 23.66 21 24 C21.495 26.475 21.495 26.475 22 29 C27.94 29 33.88 29 40 29 C40 30.98 40 32.96 40 35 C36.04 35 32.08 35 28 35 C28 36.98 28 38.96 28 41 C22.06 41 16.12 41 10 41 C10 42.65 10 44.3 10 46 C-2.87 46 -15.74 46 -29 46 C-29 44.35 -29 42.7 -29 41 C-17.78 41 -6.56 41 5 41 C4.67 35.72 4.34 30.44 4 25 C2.68 24.67 1.36 24.34 0 24 C0 16.08 0 8.16 0 0 Z " fill="#06F903" transform="translate(106,141)"/>
<path d="M0 0 C1.98 0 3.96 0 6 0 C6 3.63 6 7.26 6 11 C7.98 11 9.96 11 12 11 C12 14.96 12 18.92 12 23 C13.98 23 15.96 23 18 23 C18 38.51 18 54.02 18 70 C16.02 70 14.04 70 12 70 C12 73.96 12 77.92 12 82 C10.02 82 8.04 82 6 82 C6 85.96 6 89.92 6 94 C4.02 94 2.04 94 0 94 C0 95.98 0 97.96 0 100 C-1.65 100 -3.3 100 -5 100 C-5 101.65 -5 103.3 -5 105 C-7.31 105 -9.62 105 -12 105 C-12.042721 103.33388095 -12.04063832 101.66617115 -12 100 C-11 99 -11 99 -8.4375 98.9375 C-7.633125 98.958125 -6.82875 98.97875 -6 99 C-6 97.02 -6 95.04 -6 93 C-4.35 93 -2.7 93 -1 93 C-1.01160156 92.21753906 -1.02320313 91.43507813 -1.03515625 90.62890625 C-1.04417969 89.61699219 -1.05320313 88.60507813 -1.0625 87.5625 C-1.07410156 86.55316406 -1.08570313 85.54382813 -1.09765625 84.50390625 C-1 82 -1 82 0 81 C1.65 81 3.3 81 5 81 C5 77.37 5 73.74 5 70 C6.98 70 8.96 70 11 70 C11 58.45 11 46.9 11 35 C9.35 35 7.7 35 6 35 C6 33.02 6 31.04 6 29 C7.65 29 9.3 29 11 29 C11 27.02 11 25.04 11 23 C9.35 23 7.7 23 6 23 C5.67 19.37 5.34 15.74 5 12 C3.35 12 1.7 12 0 12 C0 8.04 0 4.08 0 0 Z " fill="#7A7A7A" transform="translate(158,65)"/>
<path d="M0 0 C1.98 0 3.96 0 6 0 C6 1.98 6 3.96 6 6 C7.65 6 9.3 6 11 6 C11.495 11.445 11.495 11.445 12 17 C13.65 17 15.3 17 17 17 C17 18.98 17 20.96 17 23 C15.35 23 13.7 23 12 23 C12 26.96 12 30.92 12 35 C10.02 35 8.04 35 6 35 C6 33.02 6 31.04 6 29 C4.02 29 2.04 29 0 29 C0 30.98 0 32.96 0 35 C-1.65 35 -3.3 35 -5 35 C-5.495 32.525 -5.495 32.525 -6 30 C-7.65 30 -9.3 30 -11 30 C-11 31.98 -11 33.96 -11 36 C-12.99954746 36.04254356 -15.00041636 36.04080783 -17 36 C-18 35 -18 35 -18.0625 32.4375 C-18.041875 31.633125 -18.02125 30.82875 -18 30 C-19.65 29.67 -21.3 29.34 -23 29 C-23 27.02 -23 25.04 -23 23 C-21.35 23 -19.7 23 -18 23 C-18 21.35 -18 19.7 -18 18 C-15.69 18 -13.38 18 -11 18 C-11.33 19.65 -11.66 21.3 -12 23 C-10.35 22.67 -8.7 22.34 -7 22 C-6.67 20.68 -6.34 19.36 -6 18 C-7.65 17.67 -9.3 17.34 -11 17 C-11 15.35 -11 13.7 -11 12 C-9.68 11.67 -8.36 11.34 -7 11 C-6.67 9.35 -6.34 7.7 -6 6 C-4.02 6 -2.04 6 0 6 C0 4.02 0 2.04 0 0 Z " fill="#9E9E9E" transform="translate(152,71)"/>
<path d="M0 0 C1.4540625 0.0309375 1.4540625 0.0309375 2.9375 0.0625 C3.2675 1.0525 3.5975 2.0425 3.9375 3.0625 C5.2059375 3.7740625 5.2059375 3.7740625 6.5 4.5 C7.304375 5.015625 8.10875 5.53125 8.9375 6.0625 C8.9375 7.3825 8.9375 8.7025 8.9375 10.0625 C10.5875 10.0625 12.2375 10.0625 13.9375 10.0625 C13.9375 11.7125 13.9375 13.3625 13.9375 15.0625 C15.5875 15.0625 17.2375 15.0625 18.9375 15.0625 C19.2778125 16.238125 19.2778125 16.238125 19.625 17.4375 C20.71875 20.28125 20.71875 20.28125 23.5625 21.375 C24.34625 21.601875 25.13 21.82875 25.9375 22.0625 C25.9375 23.7125 25.9375 25.3625 25.9375 27.0625 C27.9175 27.0625 29.8975 27.0625 31.9375 27.0625 C32.01722012 31.7659873 31.87241183 35.38794083 30.9375 40.0625 C24.9975 40.0625 19.0575 40.0625 12.9375 40.0625 C12.6075 38.7425 12.2775 37.4225 11.9375 36.0625 C9.44715614 34.76589566 9.44715614 34.76589566 6.9375 34.0625 C6.89882812 32.90621094 6.89882812 32.90621094 6.859375 31.7265625 C6.80265625 30.72367188 6.7459375 29.72078125 6.6875 28.6875 C6.64109375 27.68976563 6.5946875 26.69203125 6.546875 25.6640625 C6.34578125 24.80554688 6.1446875 23.94703125 5.9375 23.0625 C4.62102881 22.36312468 3.28727849 21.69520867 1.9375 21.0625 C1.328125 18.8984375 1.328125 18.8984375 1.1875 16.4375 C1.13078125 15.62023437 1.0740625 14.80296875 1.015625 13.9609375 C0.98984375 13.33445313 0.9640625 12.70796875 0.9375 12.0625 C-1.0425 11.4025 -3.0225 10.7425 -5.0625 10.0625 C-4.92200482 8.58281676 -4.77495174 7.10375484 -4.625 5.625 C-4.54378906 4.80128906 -4.46257812 3.97757813 -4.37890625 3.12890625 C-3.8690239 -0.20106615 -3.4903173 0.07123097 0 0 Z " fill="#24ECE5" transform="translate(115.0625,129.9375)"/>
<path d="M0 0 C1.98 0 3.96 0 6 0 C6 1.65 6 3.3 6 5 C7.98 5 9.96 5 12 5 C12 6.98 12 8.96 12 11 C10.02 11 8.04 11 6 11 C6 12.98 6 14.96 6 17 C4.02 17 2.04 17 0 17 C0 18.65 0 20.3 0 22 C-1.65 22.33 -3.3 22.66 -5 23 C-5 24.65 -5 26.3 -5 28 C-3.35 28.33 -1.7 28.66 0 29 C-0.33 30.65 -0.66 32.3 -1 34 C-2.65 34 -4.3 34 -6 34 C-6 32.68 -6 31.36 -6 30 C-7.98 29.67 -9.96 29.34 -12 29 C-12 30.32 -12 31.64 -12 33 C-13.65 33 -15.3 33 -17 33 C-17 31.35 -17 29.7 -17 28 C-18.98 28 -20.96 28 -23 28 C-23 29.98 -23 31.96 -23 34 C-21.35 34 -19.7 34 -18 34 C-18 35.98 -18 37.96 -18 40 C-21.63 40 -25.26 40 -29 40 C-29 36.04 -29 32.08 -29 28 C-27.35 28 -25.7 28 -24 28 C-24 26.02 -24 24.04 -24 22 C-22.02 21.67 -20.04 21.34 -18 21 C-18 19.35 -18 17.7 -18 16 C-16.02 16 -14.04 16 -12 16 C-12 14.35 -12 12.7 -12 11 C-10.02 11 -8.04 11 -6 11 C-6 9.02 -6 7.04 -6 5 C-4.02 5 -2.04 5 0 5 C0 3.35 0 1.7 0 0 Z " fill="#EBEBEB" transform="translate(146,60)"/>
<path d="M0 0 C0.66 0.33 1.32 0.66 2 1 C2.33 8.92 2.66 16.84 3 25 C1.02 25 -0.96 25 -3 25 C-3 26.65 -3 28.3 -3 30 C-8.61 30 -14.22 30 -20 30 C-20 28.35 -20 26.7 -20 25 C-21.98 25 -23.96 25 -26 25 C-26 19.39 -26 13.78 -26 8 C-24.35 8 -22.7 8 -21 8 C-21 11.63 -21 15.26 -21 19 C-18.69 19 -16.38 19 -14 19 C-14 15.04 -14 11.08 -14 7 C-15.98 7 -17.96 7 -20 7 C-20 5.35 -20 3.7 -20 2 C-19.42967041 1.97494385 -18.85934082 1.9498877 -18.27172852 1.92407227 C-15.70173843 1.80843451 -13.13214473 1.68556376 -10.5625 1.5625 C-9.66466797 1.52318359 -8.76683594 1.48386719 -7.84179688 1.44335938 C-6.98779297 1.40146484 -6.13378906 1.35957031 -5.25390625 1.31640625 C-4.46314697 1.27974854 -3.6723877 1.24309082 -2.85766602 1.20532227 C-0.98598559 1.19436743 -0.98598559 1.19436743 0 0 Z " fill="#040404" transform="translate(38,40)"/>
<path d="M0 0 C5.28 0 10.56 0 16 0 C16 15.18 16 30.36 16 46 C12.37 46 8.74 46 5 46 C5 35.77 5 25.54 5 15 C3.35 15 1.7 15 0 15 C0 10.05 0 5.1 0 0 Z " fill="#F7FC13" transform="translate(83,42)"/>
<path d="M0 0 C3.96 0 7.92 0 12 0 C12 1.65 12 3.3 12 5 C13.65 5 15.3 5 17 5 C17.125 12.75 17.125 12.75 16 15 C16.66 15 17.32 15 18 15 C18 14.34 18 13.68 18 13 C21.3 13 24.6 13 28 13 C28 14.32 28 15.64 28 17 C26.68 17.33 25.36 17.66 24 18 C23.67 19.65 23.34 21.3 23 23 C19.04 23 15.08 23 11 23 C11 25.31 11 27.62 11 30 C9.35 30 7.7 30 6 30 C6 31.65 6 33.3 6 35 C4.02 35 2.04 35 0 35 C0 23.45 0 11.9 0 0 Z " fill="#F4F4F4" transform="translate(41,24)"/>
<path d="M0 0 C3.96 0 7.92 0 12 0 C12 3.96 12 7.92 12 12 C10.02 12 8.04 12 6 12 C6 13.98 6 15.96 6 18 C4.02 18 2.04 18 0 18 C0 19.65 0 21.3 0 23 C-1.98 23 -3.96 23 -6 23 C-6 21.68 -6 20.36 -6 19 C-7.65 19 -9.3 19 -11 19 C-11 20.65 -11 22.3 -11 24 C-9.35 24 -7.7 24 -6 24 C-6 25.98 -6 27.96 -6 30 C-7.65 30 -9.3 30 -11 30 C-11 31.98 -11 33.96 -11 36 C-12.98 36 -14.96 36 -17 36 C-17 37.65 -17 39.3 -17 41 C-18.98 41 -20.96 41 -23 41 C-23 39.35 -23 37.7 -23 36 C-20.525 35.505 -20.525 35.505 -18 35 C-18 33.35 -18 31.7 -18 30 C-19.65 29.67 -21.3 29.34 -23 29 C-23 27.35 -23 25.7 -23 24 C-21.35 23.67 -19.7 23.34 -18 23 C-17.67 21.35 -17.34 19.7 -17 18 C-15.02 18 -13.04 18 -11 18 C-11 16.02 -11 14.04 -11 12 C-9.35 12 -7.7 12 -6 12 C-6 10.02 -6 8.04 -6 6 C-4.02 6 -2.04 6 0 6 C0 4.02 0 2.04 0 0 Z " fill="#DDDDDD" transform="translate(70,123)"/>
<path d="M0 0 C1.98 0 3.96 0 6 0 C6.33 3.63 6.66 7.26 7 11 C8.65 11.33 10.3 11.66 12 12 C12.02485364 16.02017255 12.04293238 20.04031488 12.05493164 24.06054688 C12.05993786 25.4261147 12.06674482 26.79167724 12.07543945 28.15722656 C12.08766831 30.12823118 12.09272866 32.0992761 12.09765625 34.0703125 C12.10551147 35.84559326 12.10551147 35.84559326 12.11352539 37.65673828 C12.00470177 40.86153532 11.60517483 43.85476612 11 47 C7.37 47 3.74 47 0 47 C0 45.02 0 43.04 0 41 C-1.98 41 -3.96 41 -6 41 C-6 39.02 -6 37.04 -6 35 C-4.02 35 -2.04 35 0 35 C0 23.45 0 11.9 0 0 Z " fill="#38E9B1" transform="translate(76,47)"/>
<path d="M0 0 C1.98 0 3.96 0 6 0 C7.01085428 3.34386398 7.11543463 6.3748118 7.09765625 9.859375 C7.09443359 10.97441406 7.09121094 12.08945313 7.08789062 13.23828125 C7.07951172 14.39714844 7.07113281 15.55601562 7.0625 16.75 C7.05798828 17.92433594 7.05347656 19.09867188 7.04882812 20.30859375 C7.03705094 23.20578072 7.02060326 26.10286454 7 29 C8.65 29.33 10.3 29.66 12 30 C12 35.28 12 40.56 12 46 C6.06 46 0.12 46 -6 46 C-5.505 43.03 -5.505 43.03 -5 40 C-2.525 39.505 -2.525 39.505 0 39 C0.33 37.35 0.66 35.7 1 34 C-0.65 34 -2.3 34 -4 34 C-4.33 32.35 -4.66 30.7 -5 29 C-3.35 28.67 -1.7 28.34 0 28 C0.33 26.02 0.66 24.04 1 22 C0.195625 22.020625 -0.60875 22.04125 -1.4375 22.0625 C-4 22 -4 22 -5 21 C-5.04063832 19.33382885 -5.042721 17.66611905 -5 16 C-3.35 16 -1.7 16 0 16 C0 14.35 0 12.7 0 11 C-1.65 11 -3.3 11 -5 11 C-5 9.35 -5 7.7 -5 6 C-4.360625 5.7525 -3.72125 5.505 -3.0625 5.25 C-0.81258459 4.18437567 -0.81258459 4.18437567 -0.25 1.875 C-0.1675 1.25625 -0.085 0.6375 0 0 Z " fill="#F6FA1B" transform="translate(99,136)"/>
<path d="M0 0 C1.98 0 3.96 0 6 0 C6 7.59 6 15.18 6 23 C2.04 23 -1.92 23 -6 23 C-6 24.98 -6 26.96 -6 29 C-9.96 29 -13.92 29 -18 29 C-18 27.35 -18 25.7 -18 24 C-19.32 24 -20.64 24 -22 24 C-22.99 26.475 -22.99 26.475 -24 29 C-25.65 29 -27.3 29 -29 29 C-29 27.35 -29 25.7 -29 24 C-27.35 23.67 -25.7 23.34 -24 23 C-23.67 21.35 -23.34 19.7 -23 18 C-21.68 17.67 -20.36 17.34 -19 17 C-18.67 15.35 -18.34 13.7 -18 12 C-17.67 12 -17.34 12 -17 12 C-17 13.65 -17 15.3 -17 17 C-15.35 17 -13.7 17 -12 17 C-12 15.35 -12 13.7 -12 12 C-10.02 12 -8.04 12 -6 12 C-6 13.65 -6 15.3 -6 17 C-4.02 17 -2.04 17 0 17 C0 11.39 0 5.78 0 0 Z " fill="#9D9D9D" transform="translate(76,100)"/>
<path d="M0 0 C5.61 0 11.22 0 17 0 C17 7.59 17 15.18 17 23 C11.39 23 5.78 23 0 23 C0 15.41 0 7.82 0 0 Z " fill="#F9F9F9" transform="translate(88,100)"/>
<path d="M0 0 C1.2065625 0.0309375 1.2065625 0.0309375 2.4375 0.0625 C2.4375 1.7125 2.4375 3.3625 2.4375 5.0625 C4.0875 5.0625 5.7375 5.0625 7.4375 5.0625 C7.4375 3.4125 7.4375 1.7625 7.4375 0.0625 C7.7675 0.0625 8.0975 0.0625 8.4375 0.0625 C8.4375 2.0425 8.4375 4.0225 8.4375 6.0625 C6.4575 6.0625 4.4775 6.0625 2.4375 6.0625 C2.458125 6.866875 2.47875 7.67125 2.5 8.5 C2.4375 11.0625 2.4375 11.0625 1.4375 12.0625 C-0.22867115 12.10313832 -1.89638095 12.105221 -3.5625 12.0625 C-3.2325 13.7125 -2.9025 15.3625 -2.5625 17.0625 C-1.2425 17.3925 0.0775 17.7225 1.4375 18.0625 C1.4375 19.7125 1.4375 21.3625 1.4375 23.0625 C0.1175 23.3925 -1.2025 23.7225 -2.5625 24.0625 C-2.8925 25.7125 -3.2225 27.3625 -3.5625 29.0625 C-1.5825 29.0625 0.3975 29.0625 2.4375 29.0625 C2.7675 30.3825 3.0975 31.7025 3.4375 33.0625 C7.0675 33.3925 10.6975 33.7225 14.4375 34.0625 C14.1075 36.3725 13.7775 38.6825 13.4375 41.0625 C9.4775 41.0625 5.5175 41.0625 1.4375 41.0625 C1.4375 39.4125 1.4375 37.7625 1.4375 36.0625 C0.633125 36.083125 -0.17125 36.10375 -1 36.125 C-3.5625 36.0625 -3.5625 36.0625 -4.5625 35.0625 C-4.60313832 33.39632885 -4.605221 31.72861905 -4.5625 30.0625 C-6.2125 30.0625 -7.8625 30.0625 -9.5625 30.0625 C-9.5625 28.0825 -9.5625 26.1025 -9.5625 24.0625 C-11.5425 24.0625 -13.5225 24.0625 -15.5625 24.0625 C-15.5625 20.1025 -15.5625 16.1425 -15.5625 12.0625 C-15.2325 12.0625 -14.9025 12.0625 -14.5625 12.0625 C-14.5625 15.6925 -14.5625 19.3225 -14.5625 23.0625 C-12.9125 23.0625 -11.2625 23.0625 -9.5625 23.0625 C-9.5625 21.0825 -9.5625 19.1025 -9.5625 17.0625 C-7.9125 17.0625 -6.2625 17.0625 -4.5625 17.0625 C-4.5625 15.4125 -4.5625 13.7625 -4.5625 12.0625 C-6.2125 11.7325 -7.8625 11.4025 -9.5625 11.0625 C-9.5625 9.4125 -9.5625 7.7625 -9.5625 6.0625 C-7.5825 6.0625 -5.6025 6.0625 -3.5625 6.0625 C-3.583125 5.258125 -3.60375 4.45375 -3.625 3.625 C-3.54067676 0.16774696 -3.45725304 0.08432324 0 0 Z " fill="#BBBBBB" transform="translate(50.5625,134.9375)"/>
<path d="M0 0 C1.98 0 3.96 0 6 0 C6 1.98 6 3.96 6 6 C7.65 6 9.3 6 11 6 C11 7.98 11 9.96 11 12 C9.35 12 7.7 12 6 12 C5.67 12.66 5.34 13.32 5 14 C5 13.34 5 12.68 5 12 C3.68 11.67 2.36 11.34 1 11 C2.32 11 3.64 11 5 11 C5 9.35 5 7.7 5 6 C3.68 6 2.36 6 1 6 C0.67 7.98 0.34 9.96 0 12 C-1.65 12 -3.3 12 -5 12 C-5 13.65 -5 15.3 -5 17 C-3.35 17 -1.7 17 0 17 C0.33 15.68 0.66 14.36 1 13 C1.33 14.65 1.66 16.3 2 18 C1.34 18 0.68 18 0 18 C0 19.65 0 21.3 0 23 C-1.98 23 -3.96 23 -6 23 C-6 24.98 -6 26.96 -6 29 C-7.98 29 -9.96 29 -12 29 C-12 30.65 -12 32.3 -12 34 C-13.65 34 -15.3 34 -17 34 C-17 32.35 -17 30.7 -17 29 C-18.98 29 -20.96 29 -23 29 C-23 27.02 -23 25.04 -23 23 C-21.35 23 -19.7 23 -18 23 C-18 21.35 -18 19.7 -18 18 C-15.69 18 -13.38 18 -11 18 C-11.33 19.65 -11.66 21.3 -12 23 C-10.35 22.67 -8.7 22.34 -7 22 C-6.67 20.68 -6.34 19.36 -6 18 C-7.65 17.67 -9.3 17.34 -11 17 C-11 15.35 -11 13.7 -11 12 C-9.68 11.67 -8.36 11.34 -7 11 C-6.67 9.35 -6.34 7.7 -6 6 C-4.02 6 -2.04 6 0 6 C0 4.02 0 2.04 0 0 Z " fill="#A1A1A1" transform="translate(152,71)"/>
<path d="M0 0 C2.31 0.66 4.62 1.32 7 2 C7.33 3.98 7.66 5.96 8 8 C8.7425 8.04125 9.485 8.0825 10.25 8.125 C14.09518973 9.34846946 14.96458052 11.63102982 17 15 C17.66 15.33 18.32 15.66 19 16 C19.33 16.99 19.66 17.98 20 19 C20.99 19.33 21.98 19.66 23 20 C24 22 24 22 24 28 C19.05 28 14.1 28 9 28 C8.67 26.35 8.34 24.7 8 23 C6.68 22.34 5.36 21.68 4 21 C4 17.7 4 14.4 4 11 C3.34 11 2.68 11 2 11 C2 10.34 2 9.68 2 9 C1.01 9 0.02 9 -1 9 C-1.09765625 2.84765625 -1.09765625 2.84765625 -1 1 C-0.67 0.67 -0.34 0.34 0 0 Z " fill="#09FCFB" transform="translate(120,141)"/>
<path d="M0 0 C1.65 0 3.3 0 5 0 C5 7.59 5 15.18 5 23 C6.98 23 8.96 23 11 23 C11 24.65 11 26.3 11 28 C9.02 28 7.04 28 5 28 C5 30.31 5 32.62 5 35 C6.98 35 8.96 35 11 35 C11 36.65 11 38.3 11 40 C9.02 40 7.04 40 5 40 C5 41.98 5 43.96 5 46 C3.35 46 1.7 46 0 46 C0 30.82 0 15.64 0 0 Z " fill="#818181" transform="translate(24,89)"/>
<path d="M0 0 C1.98 0 3.96 0 6 0 C6 7.92 6 15.84 6 24 C4.02 24 2.04 24 0 24 C0 25.65 0 27.3 0 29 C-7.59 29 -15.18 29 -23 29 C-23 27.35 -23 25.7 -23 24 C-15.41 23.67 -7.82 23.34 0 23 C0 15.41 0 7.82 0 0 Z " fill="#101110" transform="translate(111,100)"/>
<path d="M0 0 C1.65 0 3.3 0 5 0 C5.33 1.32 5.66 2.64 6 4 C8.475 4.495 8.475 4.495 11 5 C11 6.98 11 8.96 11 11 C9.35 11.33 7.7 11.66 6 12 C5.67 13.32 5.34 14.64 5 16 C3.35 16 1.7 16 0 16 C0 14.35 0 12.7 0 11 C-1.98 11 -3.96 11 -6 11 C-6 12.98 -6 14.96 -6 17 C-4.35 17 -2.7 17 -1 17 C-1 18.98 -1 20.96 -1 23 C-4.63 23 -8.26 23 -12 23 C-12 19.04 -12 15.08 -12 11 C-10.35 11 -8.7 11 -7 11 C-7 9.02 -7 7.04 -7 5 C-5.02 4.67 -3.04 4.34 -1 4 C-0.67 2.68 -0.34 1.36 0 0 Z " fill="#E2E2E2" transform="translate(129,77)"/>
<path d="M0 0 C3.96 0 7.92 0 12 0 C12 3.96 12 7.92 12 12 C10.02 12 8.04 12 6 12 C6 13.98 6 15.96 6 18 C2.04 18 -1.92 18 -6 18 C-6 14.04 -6 10.08 -6 6 C-4.02 6 -2.04 6 0 6 C0 4.02 0 2.04 0 0 Z " fill="#D2D2D2" transform="translate(70,123)"/>
<path d="M0 0 C1.32 0 2.64 0 4 0 C4.33 4.29 4.66 8.58 5 13 C6.32 13.33 7.64 13.66 9 14 C9 22.25 9 30.5 9 39 C8.01 39 7.02 39 6 39 C5.67 37.35 5.34 35.7 5 34 C3.35 33.67 1.7 33.34 0 33 C0 22.11 0 11.22 0 0 Z " fill="#10F9F4" transform="translate(77,48)"/>
<path d="M0 0 C1.98 0 3.96 0 6 0 C6 3.63 6 7.26 6 11 C7.98 11 9.96 11 12 11 C12 14.96 12 18.92 12 23 C13.98 23 15.96 23 18 23 C18 38.51 18 54.02 18 70 C17.67 70 17.34 70 17 70 C17 54.82 17 39.64 17 24 C15.35 24 13.7 24 12 24 C12 27.63 12 31.26 12 35 C10.02 35 8.04 35 6 35 C6 33.02 6 31.04 6 29 C7.65 29 9.3 29 11 29 C11 27.02 11 25.04 11 23 C9.35 23 7.7 23 6 23 C5.67 19.37 5.34 15.74 5 12 C3.35 12 1.7 12 0 12 C0 8.04 0 4.08 0 0 Z " fill="#7D7D7D" transform="translate(158,65)"/>
<path d="M0 0 C1.65 0 3.3 0 5 0 C5 15.18 5 30.36 5 46 C3.35 46 1.7 46 0 46 C0 30.82 0 15.64 0 0 Z " fill="#060606" transform="translate(170,89)"/>
<path d="M0 0 C12.87 0 25.74 0 39 0 C39 1.65 39 3.3 39 5 C26.13 5 13.26 5 0 5 C0 3.35 0 1.7 0 0 Z " fill="#0F1005" transform="translate(77,182)"/>
<path d="M0 0 C2.64 0 5.28 0 8 0 C8 0.33 8 0.66 8 1 C6.02 1 4.04 1 2 1 C2 2.98 2 4.96 2 7 C3.65 7 5.3 7 7 7 C7 8.65 7 10.3 7 12 C5.02 12 3.04 12 1 12 C1 10.35 1 8.7 1 7 C-0.98 7 -2.96 7 -5 7 C-5 8.65 -5 10.3 -5 12 C-3.35 12 -1.7 12 0 12 C0 13.98 0 15.96 0 18 C-1.32 18.33 -2.64 18.66 -4 19 C-4.33 20.65 -4.66 22.3 -5 24 C-6.65 24 -8.3 24 -10 24 C-10 27.63 -10 31.26 -10 35 C-8.35 35 -6.7 35 -5 35 C-5 35.33 -5 35.66 -5 36 C-6.98 36 -8.96 36 -11 36 C-11 30.06 -11 24.12 -11 18 C-9.02 18 -7.04 18 -5 18 C-5 16.35 -5 14.7 -5 13 C-6.98 13 -8.96 13 -11 13 C-11 10.69 -11 8.38 -11 6 C-9.02 6 -7.04 6 -5 6 C-5 4.35 -5 2.7 -5 1 C-4.67 1 -4.34 1 -4 1 C-4 2.65 -4 4.3 -4 6 C-2.35 6 -0.7 6 1 6 C0.67 4.02 0.34 2.04 0 0 Z " fill="#A8A8A8" transform="translate(40,111)"/>
<path d="M0 0 C1.98 0 3.96 0 6 0 C6 1.65 6 3.3 6 5 C5.195625 5.2475 4.39125 5.495 3.5625 5.75 C2.716875 6.1625 1.87125 6.575 1 7 C0.67 8.32 0.34 9.64 0 11 C-7.59 11 -15.18 11 -23 11 C-23 9.02 -23 7.04 -23 5 C-15.41 5 -7.82 5 0 5 C0 3.35 0 1.7 0 0 Z " fill="#757869" transform="translate(111,124)"/>
<path d="M0 0 C1.65 0 3.3 0 5 0 C5 1.98 5 3.96 5 6 C6.98 6 8.96 6 11 6 C11.33 7.65 11.66 9.3 12 11 C13.32 11.33 14.64 11.66 16 12 C16 13.65 16 15.3 16 17 C14.35 17 12.7 17 11 17 C11 18.98 11 20.96 11 23 C9.35 23 7.7 23 6 23 C5.67 19.37 5.34 15.74 5 12 C3.35 11.67 1.7 11.34 0 11 C0 7.37 0 3.74 0 0 Z " fill="#828282" transform="translate(30,135)"/>
<path d="M0 0 C3.63 0 7.26 0 11 0 C11.33 1.65 11.66 3.3 12 5 C11.67 5.33 11.34 5.66 11 6 C9.35 6 7.7 6 6 6 C6 11.61 6 17.22 6 23 C4.02 23 2.04 23 0 23 C0 15.41 0 7.82 0 0 Z " fill="#7F7F7F" transform="translate(117,100)"/>
<path d="M0 0 C3.96 0 7.92 0 12 0 C12 1.98 12 3.96 12 6 C11.67 6 11.34 6 11 6 C11 4.35 11 2.7 11 1 C7.7 1 4.4 1 1 1 C1 14.53 1 28.06 1 42 C-4.94 42 -10.88 42 -17 42 C-17 43.65 -17 45.3 -17 47 C-15.02 47 -13.04 47 -11 47 C-11 50.96 -11 54.92 -11 59 C-13.31 59 -15.62 59 -18 59 C-18 55.37 -18 51.74 -18 48 C-19.65 48 -21.3 48 -23 48 C-23 47.67 -23 47.34 -23 47 C-21.35 47 -19.7 47 -18 47 C-18 45.02 -18 43.04 -18 41 C-12.06 41 -6.12 41 0 41 C0 27.47 0 13.94 0 0 Z " fill="#747474" transform="translate(35,0)"/>
<path d="M0 0 C11.22 0 22.44 0 34 0 C34 1.65 34 3.3 34 5 C22.78 5 11.56 5 0 5 C0 3.35 0 1.7 0 0 Z " fill="#818383" transform="translate(82,36)"/>
<path d="M0 0 C0.33 0 0.66 0 1 0 C1 1.65 1 3.3 1 5 C2.65 5 4.3 5 6 5 C6.33 3.35 6.66 1.7 7 0 C8.65 0 10.3 0 12 0 C12 1.65 12 3.3 12 5 C13.98 5 15.96 5 18 5 C18 5.33 18 5.66 18 6 C16.02 6 14.04 6 12 6 C12 7.65 12 9.3 12 11 C10.35 11.33 8.7 11.66 7 12 C7 13.65 7 15.3 7 17 C8.65 17.33 10.3 17.66 12 18 C11.67 19.65 11.34 21.3 11 23 C9.35 23 7.7 23 6 23 C6 21.68 6 20.36 6 19 C4.35 18.67 2.7 18.34 1 18 C1 17.67 1 17.34 1 17 C2.65 17 4.3 17 6 17 C6 15.02 6 13.04 6 11 C4.35 11 2.7 11 1 11 C0.67 9.35 0.34 7.7 0 6 C-1.65 6 -3.3 6 -5 6 C-5.33 6.99 -5.66 7.98 -6 9 C-6 7.68 -6 6.36 -6 5 C-4.02 5 -2.04 5 0 5 C0 3.35 0 1.7 0 0 Z " fill="#DDDDDD" transform="translate(134,71)"/>
<path d="M0 0 C0.33 0 0.66 0 1 0 C1 1.65 1 3.3 1 5 C4.63 5 8.26 5 12 5 C12 10.61 12 16.22 12 22 C6.06 22.33 0.12 22.66 -6 23 C-6 21.02 -6 19.04 -6 17 C-2.04 17 1.92 17 6 17 C6 15.35 6 13.7 6 12 C7.65 11.67 9.3 11.34 11 11 C11 9.68 11 8.36 11 7 C7.7 7 4.4 7 1 7 C1 7.66 1 8.32 1 9 C0.34 9 -0.32 9 -1 9 C-0.67 6.03 -0.34 3.06 0 0 Z " fill="#9B9A9A" transform="translate(58,30)"/>
<path d="M0 0 C1.32 0 2.64 0 4 0 C4.61875 1.36125 4.61875 1.36125 5.25 2.75 C6.89050718 5.79665618 8.44718361 7.71126806 11 10 C10.67 10.66 10.34 11.32 10 12 C9.34 12 8.68 12 8 12 C7.67 14.64 7.34 17.28 7 20 C7.99 20 8.98 20 10 20 C10 20.66 10 21.32 10 22 C10.66 22 11.32 22 12 22 C12.03867188 23.04800781 12.03867188 23.04800781 12.078125 24.1171875 C12.13484375 25.02726562 12.1915625 25.93734375 12.25 26.875 C12.29640625 27.77992188 12.3428125 28.68484375 12.390625 29.6171875 C12.59171875 30.40351563 12.7928125 31.18984375 13 32 C14.96672915 33.1500831 14.96672915 33.1500831 17 34 C17.75 37.125 17.75 37.125 18 40 C17.34 40 16.68 40 16 40 C15.938125 39.38125 15.87625 38.7625 15.8125 38.125 C15.544375 37.42375 15.27625 36.7225 15 36 C12.49195108 34.84668432 12.49195108 34.84668432 10 34 C9.96132812 32.84371094 9.96132812 32.84371094 9.921875 31.6640625 C9.86515625 30.66117188 9.8084375 29.65828125 9.75 28.625 C9.70359375 27.62726563 9.6571875 26.62953125 9.609375 25.6015625 C9.40828125 24.74304688 9.2071875 23.88453125 9 23 C7.68352881 22.30062468 6.34977849 21.63270867 5 21 C4.390625 18.8359375 4.390625 18.8359375 4.25 16.375 C4.19328125 15.55773437 4.1365625 14.74046875 4.078125 13.8984375 C4.05234375 13.27195313 4.0265625 12.64546875 4 12 C2.02 11.34 0.04 10.68 -2 10 C-1.85950482 8.52031676 -1.71245174 7.04125484 -1.5625 5.5625 C-1.48128906 4.73878906 -1.40007812 3.91507813 -1.31640625 3.06640625 C-1 1 -1 1 0 0 Z " fill="#3BEBED" transform="translate(112,130)"/>
<path d="M0 0 C1.98 0 3.96 0 6 0 C6 7.59 6 15.18 6 23 C2.7 23 -0.6 23 -4 23 C-4.33 21.35 -4.66 19.7 -5 18 C-3.35 18 -1.7 18 0 18 C0 12.06 0 6.12 0 0 Z " fill="#777777" transform="translate(76,100)"/>
<path d="M0 0 C2.31 0 4.62 0 7 0 C7 1.32 7 2.64 7 4 C9.97 4.495 9.97 4.495 13 5 C13 6.65 13 8.3 13 10 C14.65 10 16.3 10 18 10 C18 12.97 18 15.94 18 19 C15.36 18.67 12.72 18.34 10 18 C10 16.35 10 14.7 10 13 C8.35 12.67 6.7 12.34 5 12 C5 10.02 5 8.04 5 6 C3.35 6 1.7 6 0 6 C0 4.02 0 2.04 0 0 Z " fill="#8DD2D6" transform="translate(58,89)"/>
<path d="M0 0 C1.32 0 2.64 0 4 0 C4 0.99 4 1.98 4 3 C3.01 3 2.02 3 1 3 C1 3.99 1 4.98 1 6 C0.01 6 -0.98 6 -2 6 C-1.67 9.3 -1.34 12.6 -1 16 C-2.32 16.33 -3.64 16.66 -5 17 C-6.29660434 19.49034386 -6.29660434 19.49034386 -7 22 C-8.65 22 -10.3 22 -12 22 C-12 20.35 -12 18.7 -12 17 C-17.94 17 -23.88 17 -30 17 C-30 15.02 -30 13.04 -30 11 C-29.67 11 -29.34 11 -29 11 C-29 12.65 -29 14.3 -29 16 C-23.39 16 -17.78 16 -12 16 C-12 14.35 -12 12.7 -12 11 C-10.02 11 -8.04 11 -6 11 C-6 9.02 -6 7.04 -6 5 C-4.02 5 -2.04 5 0 5 C0 3.35 0 1.7 0 0 Z " fill="#819097" transform="translate(47,54)"/>
<path d="M0 0 C0.33 0.66 0.66 1.32 1 2 C-0.65 2.33 -2.3 2.66 -4 3 C-4.33 6.3 -4.66 9.6 -5 13 C-6.65 13 -8.3 13 -10 13 C-10 20.92 -10 28.84 -10 37 C-10.33 37 -10.66 37 -11 37 C-11 29.41 -11 21.82 -11 14 C-12.65 14 -14.3 14 -16 14 C-16 28.52 -16 43.04 -16 58 C-16.33 58 -16.66 58 -17 58 C-17 43.15 -17 28.3 -17 13 C-15.02 13 -13.04 13 -11 13 C-11 9.04 -11 5.08 -11 1 C-5.555 0.505 -5.555 0.505 0 0 Z " fill="#A9B5B6" transform="translate(40,75)"/>
<path d="M0 0 C1.32 0.33 2.64 0.66 4 1 C4 2.32 4 3.64 4 5 C9.94 5 15.88 5 22 5 C22 6.98 22 8.96 22 11 C14.74 11 7.48 11 0 11 C0 7.37 0 3.74 0 0 Z " fill="#B2C0B7" transform="translate(124,165)"/>
<path d="M0 0 C1.65 0 3.3 0 5 0 C5.04898438 0.83144531 5.09796875 1.66289063 5.1484375 2.51953125 C5.22320312 3.60621094 5.29796875 4.69289063 5.375 5.8125 C5.44460937 6.89144531 5.51421875 7.97039062 5.5859375 9.08203125 C5.81195733 12.18626186 5.81195733 12.18626186 8 15 C7.01 15.495 7.01 15.495 6 16 C6.66 17.65 7.32 19.3 8 21 C11.465 20.505 11.465 20.505 15 20 C15.66 18.35 16.32 16.7 17 15 C18.32 15.66 19.64 16.32 21 17 C21 18.32 21 19.64 21 21 C20.34 21 19.68 21 19 21 C19 21.66 19 22.32 19 23 C14.38 23 9.76 23 5 23 C5 21.02 5 19.04 5 17 C3.35 17 1.7 17 0 17 C0 11.39 0 5.78 0 0 Z " fill="#030D05" transform="translate(47,65)"/>
<path d="M0 0 C1.98 0 3.96 0 6 0 C6 7.59 6 15.18 6 23 C4.02 23 2.04 23 0 23 C0 15.41 0 7.82 0 0 Z " fill="#797979" transform="translate(105,100)"/>
<path d="M0 0 C7.59 0 15.18 0 23 0 C23 1.98 23 3.96 23 6 C15.41 6 7.82 6 0 6 C0 4.02 0 2.04 0 0 Z " fill="#161415" transform="translate(88,94)"/>
<path d="M0 0 C1.64630328 0.14042877 3.29204179 0.28749329 4.9375 0.4375 C6.31228516 0.55931641 6.31228516 0.55931641 7.71484375 0.68359375 C10 1 10 1 11 2 C11.20159109 4.28917881 11.31892937 6.57562063 11.42578125 8.87109375 C11.61527344 9.57363281 11.80476563 10.27617187 12 11 C13.32 11.66 14.64 12.32 16 13 C16 16.63 16 20.26 16 24 C14.35 24 12.7 24 11 24 C11 20.37 11 16.74 11 13 C9.35 13 7.7 13 6 13 C4.00812602 11.00812602 4.68700042 7.0505273 4.57421875 4.34765625 C4.24236602 1.82472112 4.24236602 1.82472112 1.95703125 0.68359375 C1.31121094 0.45800781 0.66539063 0.23242188 0 0 Z " fill="#72E19A" transform="translate(106,140)"/>
<path d="M0 0 C1.81242052 -0.02687279 3.62495233 -0.04633715 5.4375 -0.0625 C6.44683594 -0.07410156 7.45617187 -0.08570312 8.49609375 -0.09765625 C11 0 11 0 12 1 C12.04063832 2.66617115 12.042721 4.33388095 12 6 C13.65 6 15.3 6 17 6 C17 7.98 17 9.96 17 12 C13.37 12 9.74 12 6 12 C6 10.02 6 8.04 6 6 C4.02 6 2.04 6 0 6 C0 4.02 0 2.04 0 0 Z " fill="#11F41A" transform="translate(70,82)"/>
<path d="M0 0 C0.66 0.33 1.32 0.66 2 1 C2 9.58 2 18.16 2 27 C3.65 26.67 5.3 26.34 7 26 C7 30.95 7 35.9 7 41 C4.69 40.67 2.38 40.34 0 40 C-0.79953138 36.71303767 -1.09658936 35.28976808 0 32 C1.29355827 30.62804426 2.62298702 29.28817344 4 28 C3.01 28 2.02 28 1 28 C-0.97533115 18.31924488 -0.99849626 9.75557837 0 0 Z " fill="#FBF906" transform="translate(102,140)"/>
<path d="M0 0 C9.57 0.33 19.14 0.66 29 1 C29 3.31 29 5.62 29 8 C30.98 8 32.96 8 35 8 C35 9.65 35 11.3 35 13 C29.555 12.505 29.555 12.505 24 12 C24 10.35 24 8.7 24 7 C21.03 6.505 21.03 6.505 18 6 C18 4.68 18 3.36 18 2 C12.06 2 6.12 2 0 2 C0 1.34 0 0.68 0 0 Z " fill="#92BFAB" transform="translate(47,87)"/>
<path d="M0 0 C1.65 0 3.3 0 5 0 C5 1.98 5 3.96 5 6 C6.98 6 8.96 6 11 6 C11 7.65 11 9.3 11 11 C9.02 11 7.04 11 5 11 C5 9.68 5 8.36 5 7 C3.35 7 1.7 7 0 7 C0 8.65 0 10.3 0 12 C1.65 12 3.3 12 5 12 C5 13.65 5 15.3 5 17 C3.35 17 1.7 17 0 17 C-0.2475 16.360625 -0.495 15.72125 -0.75 15.0625 C-1.81562433 12.81258459 -1.81562433 12.81258459 -4.125 12.25 C-4.74375 12.1675 -5.3625 12.085 -6 12 C-6 10.02 -6 8.04 -6 6 C-4.02 6 -2.04 6 0 6 C0 4.02 0 2.04 0 0 Z " fill="#DCDCDC" transform="translate(59,135)"/>
<path d="M0 0 C3.63 0 7.26 0 11 0 C11.33 1.65 11.66 3.3 12 5 C17.28 5 22.56 5 28 5 C28 5.33 28 5.66 28 6 C22.72 6 17.44 6 12 6 C12 7.65 12 9.3 12 11 C24.87 11 37.74 11 51 11 C51 9.35 51 7.7 51 6 C51.33 6 51.66 6 52 6 C52 7.98 52 9.96 52 12 C38.47 12 24.94 12 11 12 C11 9.69 11 7.38 11 5 C7.37 5 3.74 5 0 5 C0 3.35 0 1.7 0 0 Z " fill="#737473" transform="translate(65,176)"/>
<path d="M0 0 C1.32 0 2.64 0 4 0 C4 4.29 4 8.58 4 13 C5.98 13 7.96 13 10 13 C10 14.65 10 16.3 10 18 C8.02 17.67 6.04 17.34 4 17 C3.67 16.01 3.34 15.02 3 14 C0.03 13.67 -2.94 13.34 -6 13 C-6.38218767 11.34385343 -6.71395102 9.67542976 -7 8 C-6 7 -6 7 -3.4375 6.9375 C-2.2309375 6.9684375 -2.2309375 6.9684375 -1 7 C-1.020625 6.030625 -1.04125 5.06125 -1.0625 4.0625 C-1 1 -1 1 0 0 Z " fill="#4BE1E1" transform="translate(42,70)"/>
<path d="M0 0 C4.29 0 8.58 0 13 0 C13 1.98 13 3.96 13 6 C14.65 6 16.3 6 18 6 C18 7.98 18 9.96 18 12 C16.02 12 14.04 12 12 12 C12 10.35 12 8.7 12 7 C8.04 7 4.08 7 0 7 C0 4.69 0 2.38 0 0 Z " fill="#8E8E8E" transform="translate(134,47)"/>
<path d="M0 0 C2.31 0 4.62 0 7 0 C6.67 5.28 6.34 10.56 6 16 C4.35 16 2.7 16 1 16 C1 14.35 1 12.7 1 11 C-0.98 11 -2.96 11 -5 11 C-5 9.02 -5 7.04 -5 5 C-3.35 5 -1.7 5 0 5 C0 3.35 0 1.7 0 0 Z " fill="#ACACAC" transform="translate(134,89)"/>
<path d="M0 0 C1.65 0 3.3 0 5 0 C5 7.59 5 15.18 5 23 C3.35 23 1.7 23 0 23 C0 15.41 0 7.82 0 0 Z " fill="#0B0B0B" transform="translate(82,100)"/>
<path d="M0 0 C0.33 0 0.66 0 1 0 C1.33 2.31 1.66 4.62 2 7 C3.65 7 5.3 7 7 7 C7 7.99 7 8.98 7 10 C5.35 10.33 3.7 10.66 2 11 C1.67 13.31 1.34 15.62 1 18 C2.98 18 4.96 18 7 18 C7 19.65 7 21.3 7 23 C5.35 23 3.7 23 2 23 C2.33 24.98 2.66 26.96 3 29 C4.32 29.33 5.64 29.66 7 30 C6.67 31.32 6.34 32.64 6 34 C4.35 34 2.7 34 1 34 C0.67 35.32 0.34 36.64 0 38 C-0.125 33.25 -0.125 33.25 1 31 C1.06950541 29.45976004 1.08452357 27.91665012 1.0625 26.375 C1.05347656 25.55773437 1.04445313 24.74046875 1.03515625 23.8984375 C1.02355469 23.27195313 1.01195313 22.64546875 1 22 C2.65 22 4.3 22 6 22 C6 21.01 6 20.02 6 19 C4.02 19 2.04 19 0 19 C-0.33 17.35 -0.66 15.7 -1 14 C-2.32 14.33 -3.64 14.66 -5 15 C-5.3125 12.6875 -5.3125 12.6875 -5 10 C-3.7625 9.319375 -3.7625 9.319375 -2.5 8.625 C-1.675 8.08875 -0.85 7.5525 0 7 C0.41725678 3.37400578 0.41725678 3.37400578 0 0 Z " fill="#C1C1B4" transform="translate(91,141)"/>
<path d="M0 0 C1.65 0 3.3 0 5 0 C5 3.63 5 7.26 5 11 C6.98 11 8.96 11 11 11 C10.525625 11.350625 10.05125 11.70125 9.5625 12.0625 C7.32126175 14.84163543 7.32882342 17.5144717 7 21 C6.67 19.68 6.34 18.36 6 17 C4.02 17 2.04 17 0 17 C0 11.39 0 5.78 0 0 Z " fill="#0E0E0E" transform="translate(12,48)"/>
<path d="M0 0 C0.66 0 1.32 0 2 0 C2 8.25 2 16.5 2 25 C3.65 25.33 5.3 25.66 7 26 C7 31.28 7 36.56 7 42 C1.06 42 -4.88 42 -11 42 C-11 41.67 -11 41.34 -11 41 C-5.72 41 -0.44 41 5 41 C5 36.05 5 31.1 5 26 C3.35 26.33 1.7 26.66 0 27 C0 18.09 0 9.18 0 0 Z " fill="#B6F118" transform="translate(104,140)"/>
<path d="M0 0 C3.3 0.33 6.6 0.66 10 1 C10.66 2.98 11.32 4.96 12 7 C15.63 7 19.26 7 23 7 C23 8.98 23 10.96 23 13 C24.32 13.33 25.64 13.66 27 14 C25.35 14 23.7 14 22 14 C22 12.02 22 10.04 22 8 C21.44828125 8.30679688 20.8965625 8.61359375 20.328125 8.9296875 C17.79459879 10.09442941 15.48828238 10.62057956 12.75 11.125 C11.41195312 11.37636719 11.41195312 11.37636719 10.046875 11.6328125 C9.03367187 11.81457031 9.03367187 11.81457031 8 12 C7.67 10.68 7.34 9.36 7 8 C5.68 7.67 4.36 7.34 3 7 C4.32 6.67 5.64 6.34 7 6 C7 5.01 7 4.02 7 3 C5.02 3 3.04 3 1 3 C0.67 2.01 0.34 1.02 0 0 Z " fill="#B3C5C4" transform="translate(35,82)"/>
<path d="M0 0 C3.96 0 7.92 0 12 0 C12 7.92 12 15.84 12 24 C13.98 24 15.96 24 18 24 C18 25.65 18 27.3 18 29 C16.02 29 14.04 29 12 29 C12 40.55 12 52.1 12 64 C11.67 64 11.34 64 11 64 C11 43.21 11 22.42 11 1 C7.37 1 3.74 1 0 1 C0 0.67 0 0.34 0 0 Z " fill="#214644" transform="translate(64,18)"/>
<path d="M0 0 C0.66 0 1.32 0 2 0 C4.31290989 10.34614155 4.1982842 20.46890579 4 31 C2.68 31 1.36 31 0 31 C0 20.77 0 10.54 0 0 Z " fill="#06FCFA" transform="translate(78,49)"/>
<path d="M0 0 C1.65 0 3.3 0 5 0 C5.33 1.65 5.66 3.3 6 5 C7.98 4.67 9.96 4.34 12 4 C13 6 13 6 12 11 C8.04 11 4.08 11 0 11 C0 7.37 0 3.74 0 0 Z " fill="#898989" transform="translate(35,130)"/>
<path d="M0 0 C5.61 0 11.22 0 17 0 C17 1.98 17 3.96 17 6 C11.39 6 5.78 6 0 6 C0 4.02 0 2.04 0 0 Z " fill="#1A2618" transform="translate(117,176)"/>
<path d="M0 0 C0.33 0 0.66 0 1 0 C1 2.31 1 4.62 1 7 C2.32 7 3.64 7 5 7 C4.71815415 9.60557491 4.42497289 12.20900398 4.125 14.8125 C4.00705078 15.91948242 4.00705078 15.91948242 3.88671875 17.04882812 C3.45539714 20.71506181 3.0803217 22.87951745 1 26 C-2.625 26.1875 -2.625 26.1875 -6 26 C-6 25.34 -6 24.68 -6 24 C-9.63 24 -13.26 24 -17 24 C-17.33 25.32 -17.66 26.64 -18 28 C-18 26.35 -18 24.7 -18 23 C-12.06 23 -6.12 23 0 23 C0 15.41 0 7.82 0 0 Z " fill="#0D241A" transform="translate(70,36)"/>
<path d="M0 0 C0.33 0 0.66 0 1 0 C1 3.63 1 7.26 1 11 C2.98 11 4.96 11 7 11 C7 11.33 7 11.66 7 12 C5.02 12 3.04 12 1 12 C1 13.98 1 15.96 1 18 C-0.65 18 -2.3 18 -4 18 C-4 19.65 -4 21.3 -4 23 C-6.31 23 -8.62 23 -11 23 C-11.042721 21.33388095 -11.04063832 19.66617115 -11 18 C-10 17 -10 17 -7.4375 16.9375 C-6.2309375 16.9684375 -6.2309375 16.9684375 -5 17 C-5 15.02 -5 13.04 -5 11 C-3.35 11 -1.7 11 0 11 C0 7.37 0 3.74 0 0 Z " fill="#959495" transform="translate(157,147)"/>
<path d="M0 0 C1.65 0 3.3 0 5 0 C5 1.65 5 3.3 5 5 C6.65 5 8.3 5 10 5 C10 3.35 10 1.7 10 0 C11.98 0 13.96 0 16 0 C16 1.65 16 3.3 16 5 C15.195625 5.2475 14.39125 5.495 13.5625 5.75 C10.828919 6.72238859 10.828919 6.72238859 10.1875 9.125 C10.125625 9.74375 10.06375 10.3625 10 11 C8.35 11 6.7 11 5 11 C5 9.35 5 7.7 5 6 C3.35 6 1.7 6 0 6 C0 4.02 0 2.04 0 0 Z " fill="#9F9F9F" transform="translate(42,112)"/>
<path d="M0 0 C2.475 0.495 2.475 0.495 5 1 C5 2.65 5 4.3 5 6 C6.98 6 8.96 6 11 6 C11 7.98 11 9.96 11 12 C7.37 12 3.74 12 0 12 C0 8.04 0 4.08 0 0 Z " fill="#F6F6F6" transform="translate(117,88)"/>
<path d="M0 0 C1.98 0 3.96 0 6 0 C6 1.65 6 3.3 6 5 C7.98 5 9.96 5 12 5 C12 6.98 12 8.96 12 11 C8.7 11 5.4 11 2 11 C0.80712589 7.12315913 0 4.08378077 0 0 Z " fill="#D7D7D7" transform="translate(146,60)"/>
<path d="M0 0 C2.475 0.495 2.475 0.495 5 1 C5.33 4.3 5.66 7.6 6 11 C7.65 11.33 9.3 11.66 11 12 C11 15.63 11 19.26 11 23 C12.4540625 22.9690625 12.4540625 22.9690625 13.9375 22.9375 C17 23 17 23 18 24 C18.07226502 25.85287502 18.0838122 27.70833878 18.0625 29.5625 C18.05347656 30.57441406 18.04445313 31.58632812 18.03515625 32.62890625 C18.02355469 33.41136719 18.01195313 34.19382813 18 35 C17.34 35 16.68 35 16 35 C16 31.37 16 27.74 16 24 C14.02 24 12.04 24 10 24 C8.79727181 21.59454362 8.89928528 20.05003047 8.9375 17.375 C8.94652344 16.55773437 8.95554687 15.74046875 8.96484375 14.8984375 C8.97644531 14.27195313 8.98804687 13.64546875 9 13 C7.824375 13.0928125 7.824375 13.0928125 6.625 13.1875 C5.325625 13.0946875 5.325625 13.0946875 4 13 C1.21362367 8.8204355 2.20437488 6.85331323 3 2 C2.01 2 1.02 2 0 2 C0 1.34 0 0.68 0 0 Z " fill="#3DE545" transform="translate(106,141)"/>
<path d="M0 0 C1.32 0 2.64 0 4 0 C4 7.26 4 14.52 4 22 C2.68 22 1.36 22 0 22 C0 14.74 0 7.48 0 0 Z " fill="#020202" transform="translate(112,101)"/>
<path d="M0 0 C1.98 0 3.96 0 6 0 C5.67 1.65 5.34 3.3 5 5 C4.67 5 4.34 5 4 5 C3.67 6.98 3.34 8.96 3 11 C2.67 11 2.34 11 2 11 C1.67 12.98 1.34 14.96 1 17 C-0.98 17.33 -2.96 17.66 -5 18 C-5 17.34 -5 16.68 -5 16 C-3.35 16 -1.7 16 0 16 C0 14.35 0 12.7 0 11 C-1.65 11 -3.3 11 -5 11 C-5 9.35 -5 7.7 -5 6 C-4.360625 5.7525 -3.72125 5.505 -3.0625 5.25 C-0.81258459 4.18437567 -0.81258459 4.18437567 -0.25 1.875 C-0.1675 1.25625 -0.085 0.6375 0 0 Z " fill="#F1F331" transform="translate(99,136)"/>
<path d="M0 0 C0.33 0 0.66 0 1 0 C1 9.24 1 18.48 1 28 C6.94 28 12.88 28 19 28 C19 28.33 19 28.66 19 29 C13.06 29 7.12 29 1 29 C1 30.65 1 32.3 1 34 C-0.98 34 -2.96 34 -5 34 C-5 32.02 -5 30.04 -5 28 C-3.35 28 -1.7 28 0 28 C0 20.41 0 12.82 0 5 C-1.65 5 -3.3 5 -5 5 C-5 4.67 -5 4.34 -5 4 C-3.35 4 -1.7 4 0 4 C0 2.68 0 1.36 0 0 Z " fill="#696A69" transform="translate(87,95)"/>
<path d="M0 0 C0.66 0 1.32 0 2 0 C1.96744792 2.01822917 1.93489583 4.03645833 1.90234375 6.0546875 C1.87350758 8.08185404 1.87350758 8.08185404 3 10 C4.65 10.33 6.3 10.66 8 11 C8.33 14.63 8.66 18.26 9 22 C8.34 21.67 7.68 21.34 7 21 C7 19.68 7 18.36 7 17 C6.34 17 5.68 17 5 17 C5 17.66 5 18.32 5 19 C3.35 19 1.7 19 0 19 C0 12.73 0 6.46 0 0 Z " fill="#05FB07" transform="translate(107,143)"/>
<path d="M0 0 C5.61 0 11.22 0 17 0 C17 1.65 17 3.3 17 5 C11.72 5 6.44 5 1 5 C0.67 3.35 0.34 1.7 0 0 Z " fill="#7F7F7F" transform="translate(117,42)"/>
<path d="M0 0 C0 1.98 0 3.96 0 6 C-3.63 6 -7.26 6 -11 6 C-11 7.98 -11 9.96 -11 12 C-11.33 12 -11.66 12 -12 12 C-12 10.35 -12 8.7 -12 7 C-12.66 6.67 -13.32 6.34 -14 6 C-13.34 6 -12.68 6 -12 6 C-12 4.02 -12 2.04 -12 0 C-7.66726186 -0.92844389 -4.33273814 -0.92844389 0 0 Z " fill="#DFDFDF" transform="translate(134,82)"/>
<path d="M0 0 C1.98 0 3.96 0 6 0 C6 1.65 6 3.3 6 5 C5.195625 5.2475 4.39125 5.495 3.5625 5.75 C0.828919 6.72238859 0.828919 6.72238859 0.1875 9.125 C0.125625 9.74375 0.06375 10.3625 0 11 C-1.65 11 -3.3 11 -5 11 C-5 10.34 -5 9.68 -5 9 C-7.64 8.67 -10.28 8.34 -13 8 C-13 7.34 -13 6.68 -13 6 C-8.71 6 -4.42 6 0 6 C0 4.02 0 2.04 0 0 Z " fill="#818286" transform="translate(111,124)"/>
<path d="M0 0 C1.51400391 0.01740234 1.51400391 0.01740234 3.05859375 0.03515625 C4.07050781 0.04417969 5.08242187 0.05320313 6.125 0.0625 C7.29869141 0.07990234 7.29869141 0.07990234 8.49609375 0.09765625 C8.49609375 2.07765625 8.49609375 4.05765625 8.49609375 6.09765625 C4.53609375 6.09765625 0.57609375 6.09765625 -3.50390625 6.09765625 C-3.50390625 0.13665781 -3.50390625 0.13665781 0 0 Z " fill="#14272B" transform="translate(137.50390625,169.90234375)"/>
<path d="M0 0 C1.65 0 3.3 0 5 0 C5 4.62 5 9.24 5 14 C3.68 13.67 2.36 13.34 1 13 C0.67 14.32 0.34 15.64 0 17 C0 11.39 0 5.78 0 0 Z " fill="#7A8D90" transform="translate(76,100)"/>
<path d="M0 0 C0.33 0 0.66 0 1 0 C1 3.3 1 6.6 1 10 C2.65 10 4.3 10 6 10 C6.66 11.65 7.32 13.3 8 15 C11.465 14.505 11.465 14.505 15 14 C15.66 12.35 16.32 10.7 17 9 C18.32 9.66 19.64 10.32 21 11 C21 12.32 21 13.64 21 15 C20.34 15 19.68 15 19 15 C19 15.66 19 16.32 19 17 C14.38 17 9.76 17 5 17 C5 15.02 5 13.04 5 11 C3.35 11 1.7 11 0 11 C0 7.37 0 3.74 0 0 Z " fill="#042122" transform="translate(47,71)"/>
<path d="M0 0 C0 1.32 0 2.64 0 4 C-1.65 4.33 -3.3 4.66 -5 5 C-5.33 6.32 -5.66 7.64 -6 9 C-6 7.68 -6 6.36 -6 5 C-7.65 4.67 -9.3 4.34 -11 4 C-11 2.35 -11 0.7 -11 -1 C-6.70700357 -2.26264601 -4.12168689 -1.62950412 0 0 Z " fill="#D9D9D9" transform="translate(58,148)"/>
<path d="M0 0 C1.98 0 3.96 0 6 0 C6 1.65 6 3.3 6 5 C4.02 5 2.04 5 0 5 C0 6.98 0 8.96 0 11 C-1.98 11 -3.96 11 -6 11 C-6 9.02 -6 7.04 -6 5 C-4.35 4.67 -2.7 4.34 -1 4 C-0.67 2.68 -0.34 1.36 0 0 Z " fill="#959595" transform="translate(146,89)"/>
<path d="M0 0 C3.63 0 7.26 0 11 0 C11 1.98 11 3.96 11 6 C7.37 6 3.74 6 0 6 C0 4.02 0 2.04 0 0 Z " fill="#878787" transform="translate(53,170)"/>
<path d="M0 0 C0.66 0.99 1.32 1.98 2 3 C4.56282742 3.72965366 4.56282742 3.72965366 7 4 C7.04254356 5.99954746 7.04080783 8.00041636 7 10 C6 11 6 11 3.4375 11.0625 C2.633125 11.041875 1.82875 11.02125 1 11 C1.33 12.32 1.66 13.64 2 15 C3.65 15.33 5.3 15.66 7 16 C7.042721 17.66611905 7.04063832 19.33382885 7 21 C6 22 6 22 3.4375 22.0625 C2.633125 22.041875 1.82875 22.02125 1 22 C1 23.65 1 25.3 1 27 C0.34 27 -0.32 27 -1 27 C-1 25.02 -1 23.04 -1 21 C0.65 20.67 2.3 20.34 4 20 C4.33 19.01 4.66 18.02 5 17 C3.35 16.67 1.7 16.34 0 16 C0 14.02 0 12.04 0 10 C1.65 10 3.3 10 5 10 C5 8.35 5 6.7 5 5 C3.35 4.67 1.7 4.34 0 4 C0 2.68 0 1.36 0 0 Z " fill="#DAD973" transform="translate(93,154)"/>
<path d="M0 0 C0.33 0 0.66 0 1 0 C1 6.27 1 12.54 1 19 C2.65 19.33 4.3 19.66 6 20 C7 21 7 21 7.1328125 23.51171875 C7.10696517 34.01865672 7.10696517 34.01865672 6 39 C5.67 39 5.34 39 5 39 C4.67 33.72 4.34 28.44 4 23 C2.68 22.67 1.36 22.34 0 22 C0 14.74 0 7.48 0 0 Z " fill="#3BF004" transform="translate(106,143)"/>
<path d="M0 0 C2.475 0.495 2.475 0.495 5 1 C4.67 1.99 4.34 2.98 4 4 C3.77202438 6.73289293 3.58331813 9.45042204 3.4375 12.1875 C3.39431641 12.93708984 3.35113281 13.68667969 3.30664062 14.45898438 C3.20077315 16.30578375 3.0999024 18.15286834 3 20 C2.34 20 1.68 20 1 20 C0.67 20.99 0.34 21.98 0 23 C0 15.41 0 7.82 0 0 Z " fill="#929292" transform="translate(105,100)"/>
<path d="M0 0 C3.96 0 7.92 0 12 0 C11.67 0.66 11.34 1.32 11 2 C7.44307323 2.85056945 5.50729422 3.16909807 2 2 C1.7834375 3.11375 1.7834375 3.11375 1.5625 4.25 C1.09812508 6.52027739 0.58136431 8.75759479 0 11 C-1.65 11 -3.3 11 -5 11 C-5 9.68 -5 8.36 -5 7 C-6.98 7 -8.96 7 -11 7 C-11 6.67 -11 6.34 -11 6 C-7.37 6 -3.74 6 0 6 C0 4.02 0 2.04 0 0 Z " fill="#7CAA62" transform="translate(87,88)"/>
<path d="M0 0 C1.98 0 3.96 0 6 0 C6.33 1.32 6.66 2.64 7 4 C10.63 4.33 14.26 4.66 18 5 C17.67 6.32 17.34 7.64 17 9 C17 8.01 17 7.02 17 6 C13.37 6 9.74 6 6 6 C6 7.98 6 9.96 6 12 C5.67 12 5.34 12 5 12 C5 10.35 5 8.7 5 7 C3.35 7 1.7 7 0 7 C0 4.69 0 2.38 0 0 Z " fill="#B5B5B5" transform="translate(47,164)"/>
<path d="M0 0 C1.98 0 3.96 0 6 0 C6 1.32 6 2.64 6 4 C7.65 4.33 9.3 4.66 11 5 C10.67 6.65 10.34 8.3 10 10 C8.35 10 6.7 10 5 10 C5 8.35 5 6.7 5 5 C3.35 5 1.7 5 0 5 C0 3.35 0 1.7 0 0 Z " fill="#49E7E9" transform="translate(59,89)"/>
<path d="M0 0 C4.95 0 9.9 0 15 0 C15 0.99 15 1.98 15 3 C15.66 3.33 16.32 3.66 17 4 C11.39 4 5.78 4 0 4 C0 2.68 0 1.36 0 0 Z " fill="#040304" transform="translate(77,183)"/>
<path d="M0 0 C1.32 0 2.64 0 4 0 C4 1.65 4 3.3 4 5 C2.35 5 0.7 5 -1 5 C-1 6.98 -1 8.96 -1 11 C-2.98 11 -4.96 11 -7 11 C-7 9.02 -7 7.04 -7 5 C-5.824375 4.87625 -5.824375 4.87625 -4.625 4.75 C-1.85250896 4.27193661 -1.85250896 4.27193661 -0.6875 1.9375 C-0.460625 1.298125 -0.23375 0.65875 0 0 Z " fill="#888888" transform="translate(54,124)"/>
<path d="M0 0 C0.33 0 0.66 0 1 0 C1 1.65 1 3.3 1 5 C6.61 5 12.22 5 18 5 C18 3.35 18 1.7 18 0 C19.98 0 21.96 0 24 0 C23.690625 0.9075 23.38125 1.815 23.0625 2.75 C22.2727737 5.16563338 21.57050703 7.52780285 21 10 C20.34 10 19.68 10 19 10 C19 8.68 19 7.36 19 6 C12.73 6 6.46 6 0 6 C0 4.02 0 2.04 0 0 Z " fill="#6E6F6F" transform="translate(17,65)"/>
<path d="M0 0 C6.93 0.495 6.93 0.495 14 1 C13.01 1.33 12.02 1.66 11 2 C11 2.66 11 3.32 11 4 C9.02 3.34 7.04 2.68 5 2 C4.7834375 2.928125 4.7834375 2.928125 4.5625 3.875 C4 6 4 6 3 8 C2.34 8 1.68 8 1 8 C1 9.98 1 11.96 1 14 C2.98 14.495 2.98 14.495 5 15 C3.35 15 1.7 15 0 15 C0 10.05 0 5.1 0 0 Z " fill="#F6FC1A" transform="translate(83,42)"/>
<path d="M0 0 C0.33 0 0.66 0 1 0 C1 1.65 1 3.3 1 5 C2.65 5 4.3 5 6 5 C6 5.33 6 5.66 6 6 C4.35 6 2.7 6 1 6 C1 7.65 1 9.3 1 11 C2.65 11 4.3 11 6 11 C6.33 9.68 6.66 8.36 7 7 C7.33 8.65 7.66 10.3 8 12 C6.39592672 12.02708567 4.7917215 12.04643483 3.1875 12.0625 C1.84751953 12.07990234 1.84751953 12.07990234 0.48046875 12.09765625 C-2 12 -2 12 -5 11 C-5 9.35 -5 7.7 -5 6 C-3.68 5.67 -2.36 5.34 -1 5 C-0.67 3.35 -0.34 1.7 0 0 Z " fill="#A3A3A3" transform="translate(146,77)"/>
<path d="M0 0 C1.65 0 3.3 0 5 0 C5 3.63 5 7.26 5 11 C3.35 11 1.7 11 0 11 C0 7.37 0 3.74 0 0 Z " fill="#111111" transform="translate(158,147)"/>
<path d="M0 0 C0.66 0 1.32 0 2 0 C2.33 0.99 2.66 1.98 3 3 C4.2684375 3.7115625 4.2684375 3.7115625 5.5625 4.4375 C6.366875 4.953125 7.17125 5.46875 8 6 C8 7.32 8 8.64 8 10 C9.65 10 11.3 10 13 10 C13 11.65 13 13.3 13 15 C14.65 15 16.3 15 18 15 C17.67 15.99 17.34 16.98 17 18 C14.525 17.01 14.525 17.01 12 16 C12 14.68 12 13.36 12 12 C10.35 12 8.7 12 7 12 C6.62875 11.1028125 6.62875 11.1028125 6.25 10.1875 C5.13660865 7.8763038 5.13660865 7.8763038 2.9375 6.5625 C0.45492059 4.56041983 0.33488864 3.09771991 0 0 Z " fill="#6ADBDB" transform="translate(116,130)"/>
<path d="M0 0 C1.65 0 3.3 0 5 0 C5 3.63 5 7.26 5 11 C3.35 11 1.7 11 0 11 C0 7.37 0 3.74 0 0 Z " fill="#0D0D0D" transform="translate(164,135)"/>
<path d="M0 0 C1.65 0 3.3 0 5 0 C5 3.63 5 7.26 5 11 C3.35 11 1.7 11 0 11 C0 7.37 0 3.74 0 0 Z " fill="#0E0E0E" transform="translate(164,77)"/>
<path d="M0 0 C1.65 0 3.3 0 5 0 C5 3.63 5 7.26 5 11 C3.35 11 1.7 11 0 11 C0 7.37 0 3.74 0 0 Z " fill="#F1F0EA" transform="translate(53,65)"/>
<path d="M0 0 C1.65 0 3.3 0 5 0 C5 3.63 5 7.26 5 11 C3.35 11 1.7 11 0 11 C0 7.37 0 3.74 0 0 Z " fill="#0B0B0B" transform="translate(158,65)"/>
<path d="M0 0 C1.65 0 3.3 0 5 0 C5 3.63 5 7.26 5 11 C3.35 11 1.7 11 0 11 C0 7.37 0 3.74 0 0 Z " fill="#C1C1C1" transform="translate(18,48)"/>
<path d="M0 0 C3.63 0 7.26 0 11 0 C11 1.65 11 3.3 11 5 C7.37 5 3.74 5 0 5 C0 3.35 0 1.7 0 0 Z " fill="#0E0E0E" transform="translate(135,48)"/>
<path d="M0 0 C1.98 0 3.96 0 6 0 C6 1.98 6 3.96 6 6 C9.3 6 12.6 6 16 6 C16 7.32 16 8.64 16 10 C13.69 10.66 11.38 11.32 9 12 C9 11.01 9 10.02 9 9 C7.68 8.34 6.36 7.68 5 7 C5 5.02 5 3.04 5 1 C3.35 1 1.7 1 0 1 C0 0.67 0 0.34 0 0 Z " fill="#B8B8B8" transform="translate(82,129)"/>
<path d="M0 0 C1.2065625 0.0309375 1.2065625 0.0309375 2.4375 0.0625 C2.4375 1.7125 2.4375 3.3625 2.4375 5.0625 C4.0875 5.0625 5.7375 5.0625 7.4375 5.0625 C7.4375 3.4125 7.4375 1.7625 7.4375 0.0625 C7.7675 0.0625 8.0975 0.0625 8.4375 0.0625 C8.4375 2.0425 8.4375 4.0225 8.4375 6.0625 C6.4575 6.0625 4.4775 6.0625 2.4375 6.0625 C2.4375 7.7125 2.4375 9.3625 2.4375 11.0625 C2.1075 11.0625 1.7775 11.0625 1.4375 11.0625 C1.4375 9.4125 1.4375 7.7625 1.4375 6.0625 C-0.2125 6.0625 -1.8625 6.0625 -3.5625 6.0625 C-3.605221 4.39638095 -3.60313832 2.72867115 -3.5625 1.0625 C-2.5625 0.0625 -2.5625 0.0625 0 0 Z " fill="#ADADAD" transform="translate(50.5625,134.9375)"/>
<path d="M0 0 C1.32 0 2.64 0 4 0 C4 1.65 4 3.3 4 5 C2.68 5 1.36 5 0 5 C-0.33 6.98 -0.66 8.96 -1 11 C-2.65 11 -4.3 11 -6 11 C-6 9.35 -6 7.7 -6 6 C-4.35 6 -2.7 6 -1 6 C-0.67 4.02 -0.34 2.04 0 0 Z " fill="#BEBEBE" transform="translate(153,77)"/>
<path d="M0 0 C1.32 0 2.64 0 4 0 C4.33 3.63 4.66 7.26 5 11 C3.35 11 1.7 11 0 11 C0 7.37 0 3.74 0 0 Z " fill="#7D7F82" transform="translate(30,77)"/>
<path d="M0 0 C0.99 0 1.98 0 3 0 C3 2.64 3 5.28 3 8 C0.03 8 -2.94 8 -6 8 C-6 6.68 -6 5.36 -6 4 C-4.35 4 -2.7 4 -1 4 C-0.67 2.68 -0.34 1.36 0 0 Z " fill="#0DF9F8" transform="translate(42,73)"/>
<path d="M0 0 C0.33 0 0.66 0 1 0 C1 1.98 1 3.96 1 6 C0.01 6 -0.98 6 -2 6 C-2 6.99 -2 7.98 -2 9 C-4.97 9 -7.94 9 -11 9 C-11.33 9.66 -11.66 10.32 -12 11 C-12 9.02 -12 7.04 -12 5 C-8.04 5 -4.08 5 0 5 C0 3.35 0 1.7 0 0 Z " fill="#9A9C9E" transform="translate(64,42)"/>
<path d="M0 0 C1.65 0 3.3 0 5 0 C3.68 0.33 2.36 0.66 1 1 C1 2.65 1 4.3 1 6 C2.65 6.33 4.3 6.66 6 7 C5.67 8.65 5.34 10.3 5 12 C3.35 12 1.7 12 0 12 C0 10.68 0 9.36 0 8 C-1.65 7.67 -3.3 7.34 -5 7 C-5 6.67 -5 6.34 -5 6 C-3.35 6 -1.7 6 0 6 C0 4.02 0 2.04 0 0 Z " fill="#B8B8B8" transform="translate(140,82)"/>
<path d="M0 0 C0 0.99 0 1.98 0 3 C0.99 3 1.98 3 3 3 C3 3.66 3 4.32 3 5 C0.03 4.67 -2.94 4.34 -6 4 C-6.33 4.99 -6.66 5.98 -7 7 C-7.99 7 -8.98 7 -10 7 C-9.67 5.02 -9.34 3.04 -9 1 C-2.25 0 -2.25 0 0 0 Z " fill="#C0C1CC" transform="translate(112,42)"/>
<path d="M0 0 C0.66 0 1.32 0 2 0 C2 1.65 2 3.3 2 5 C0.35 5 -1.3 5 -3 5 C-2.67 6.98 -2.34 8.96 -2 11 C-0.68 11.33 0.64 11.66 2 12 C1.67 13.32 1.34 14.64 1 16 C-0.65 16 -2.3 16 -4 16 C-4.33 17.32 -4.66 18.64 -5 20 C-5.125 15.25 -5.125 15.25 -4 13 C-3.93049459 11.45976004 -3.91547643 9.91665012 -3.9375 8.375 C-3.94652344 7.55773437 -3.95554687 6.74046875 -3.96484375 5.8984375 C-3.97644531 5.27195313 -3.98804687 4.64546875 -4 4 C-2.35 4 -0.7 4 1 4 C0.67 2.68 0.34 1.36 0 0 Z " fill="#C8C2A3" transform="translate(96,159)"/>
<path d="M0 0 C1.98 0 3.96 0 6 0 C6 1.65 6 3.3 6 5 C7.65 5 9.3 5 11 5 C11 5.33 11 5.66 11 6 C9.35 6 7.7 6 6 6 C6 7.65 6 9.3 6 11 C5.67 11 5.34 11 5 11 C5 9.35 5 7.7 5 6 C3.35 6 1.7 6 0 6 C0 4.02 0 2.04 0 0 Z " fill="#CCCCCC" transform="translate(123,88)"/>
<path d="M0 0 C0.66 0.66 1.32 1.32 2 2 C3.64991582 2.70710678 5.31562256 3.37943989 7 4 C7 5.65 7 7.3 7 9 C8.98 9 10.96 9 13 9 C13 11.31 13 13.62 13 16 C12.34 16 11.68 16 11 16 C10.5978125 15.0409375 10.5978125 15.0409375 10.1875 14.0625 C9.11332248 11.66868314 9.11332248 11.66868314 6 11 C6 9.02 6 7.04 6 5 C4.35 4.67 2.7 4.34 1 4 C0.67 2.68 0.34 1.36 0 0 Z " fill="#73DED9" transform="translate(134,148)"/>
<path d="M0 0 C0.66 0.33 1.32 0.66 2 1 C1.67 2.65 1.34 4.3 1 6 C-0.65 6 -2.3 6 -4 6 C-4.33 7.65 -4.66 9.3 -5 11 C-5.33 11 -5.66 11 -6 11 C-6 9.35 -6 7.7 -6 6 C-7.65 6 -9.3 6 -11 6 C-11 4.35 -11 2.7 -11 1 C-9.35 1 -7.7 1 -6 1 C-6 2.32 -6 3.64 -6 5 C-4.02 5 -2.04 5 0 5 C0 3.35 0 1.7 0 0 Z " fill="#D7D7D7" transform="translate(70,141)"/>
<path d="M0 0 C4.95 0.33 9.9 0.66 15 1 C15 1.33 15 1.66 15 2 C17.475 2.495 17.475 2.495 20 3 C20 3.33 20 3.66 20 4 C13.4 4 6.8 4 0 4 C0 2.68 0 1.36 0 0 Z " fill="#7E7676" transform="translate(89,90)"/>
<path d="M0 0 C1.32 0 2.64 0 4 0 C4 0.99 4 1.98 4 3 C3.01 3 2.02 3 1 3 C1 3.99 1 4.98 1 6 C0.01 6 -0.98 6 -2 6 C-2 7.65 -2 9.3 -2 11 C-3.32 11 -4.64 11 -6 11 C-6 9.02 -6 7.04 -6 5 C-4.02 5 -2.04 5 0 5 C0 3.35 0 1.7 0 0 Z " fill="#889682" transform="translate(47,54)"/>
<path d="M0 0 C1.32 0 2.64 0 4 0 C4 3.3 4 6.6 4 10 C2.68 10 1.36 10 0 10 C0 6.7 0 3.4 0 0 Z " fill="#AFCCBE" transform="translate(118,153)"/>
<path d="M0 0 C1.32 0.33 2.64 0.66 4 1 C4 3.97 4 6.94 4 10 C2.68 10 1.36 10 0 10 C0 6.7 0 3.4 0 0 Z " fill="#B3CABE" transform="translate(112,142)"/>
<path d="M0 0 C2.97 0 5.94 0 9 0 C9 1.32 9 2.64 9 4 C5.7 4 2.4 4 -1 4 C-0.67 2.68 -0.34 1.36 0 0 Z " fill="#11F517" transform="translate(55,54)"/>
<path d="M0 0 C0.99 0 1.98 0 3 0 C3 0.66 3 1.32 3 2 C6.96 2 10.92 2 15 2 C15 2.66 15 3.32 15 4 C9.72 4 4.44 4 -1 4 C-0.67 2.68 -0.34 1.36 0 0 Z " fill="#838460" transform="translate(83,37)"/>
<path d="M0 0 C1.98 0 3.96 0 6 0 C6 3.63 6 7.26 6 11 C5.01 10.67 4.02 10.34 3 10 C3.66 10 4.32 10 5 10 C4.67 8.02 4.34 6.04 4 4 C2.68 4 1.36 4 0 4 C0 2.68 0 1.36 0 0 Z " fill="#15F019" transform="translate(116,165)"/>
<path d="M0 0 C1.98 0 3.96 0 6 0 C6 1.98 6 3.96 6 6 C4.02 6 2.04 6 0 6 C0 4.02 0 2.04 0 0 Z " fill="#F6F6F6" transform="translate(70,135)"/>
<path d="M0 0 C1.98 0 3.96 0 6 0 C6 1.98 6 3.96 6 6 C4.02 6 2.04 6 0 6 C0 4.02 0 2.04 0 0 Z " fill="#F4F5F7" transform="translate(76,129)"/>
<path d="M0 0 C1.98 0 3.96 0 6 0 C6 1.98 6 3.96 6 6 C4.02 6 2.04 6 0 6 C0 4.02 0 2.04 0 0 Z " fill="#B9B9B9" transform="translate(76,123)"/>
<path d="M0 0 C1.98 0 3.96 0 6 0 C6 1.98 6 3.96 6 6 C4.02 6 2.04 6 0 6 C0 4.02 0 2.04 0 0 Z " fill="#8A8A8A" transform="translate(158,100)"/>
<path d="M0 0 C1.98 0 3.96 0 6 0 C6 1.98 6 3.96 6 6 C4.02 6 2.04 6 0 6 C0 4.02 0 2.04 0 0 Z " fill="#35EBE3" transform="translate(70,100)"/>
<path d="M0 0 C1.98 0 3.96 0 6 0 C6 1.98 6 3.96 6 6 C4.02 6 2.04 6 0 6 C0 4.02 0 2.04 0 0 Z " fill="#80807F" transform="translate(111,94)"/>
<path d="M0 0 C1.98 0 3.96 0 6 0 C6 1.98 6 3.96 6 6 C4.02 6 2.04 6 0 6 C0 4.02 0 2.04 0 0 Z " fill="#303030" transform="translate(152,59)"/>
<path d="M0 0 C1.98 0 3.96 0 6 0 C6 1.98 6 3.96 6 6 C4.02 6 2.04 6 0 6 C0 4.02 0 2.04 0 0 Z " fill="#24E1C7" transform="translate(64,53)"/>
<path d="M0 0 C1.2065625 0.0309375 1.2065625 0.0309375 2.4375 0.0625 C2.4375 2.0425 2.4375 4.0225 2.4375 6.0625 C0.4575 6.0625 -1.5225 6.0625 -3.5625 6.0625 C-3.605221 4.39638095 -3.60313832 2.72867115 -3.5625 1.0625 C-2.5625 0.0625 -2.5625 0.0625 0 0 Z " fill="#1B2F33" transform="translate(149.5625,163.9375)"/>
<path d="M0 0 C1.66611905 -0.042721 3.33382885 -0.04063832 5 0 C6 1 6 1 6.0625 3.5625 C6.041875 4.366875 6.02125 5.17125 6 6 C4.02 6 2.04 6 0 6 C0 4.02 0 2.04 0 0 Z " fill="#B7B7B7" transform="translate(35,135)"/>
<path d="M0 0 C1.98 0 3.96 0 6 0 C6.042721 1.66611905 6.04063832 3.33382885 6 5 C5 6 5 6 2.4375 6.0625 C1.2309375 6.0315625 1.2309375 6.0315625 0 6 C0 4.02 0 2.04 0 0 Z " fill="#B9B9B9" transform="translate(41,129)"/>
<path d="M0 0 C1.66611905 -0.042721 3.33382885 -0.04063832 5 0 C6 1 6 1 6.0625 3.5625 C6.041875 4.366875 6.02125 5.17125 6 6 C4.02 6 2.04 6 0 6 C0 4.02 0 2.04 0 0 Z " fill="#B8B8B8" transform="translate(158,94)"/>
<path d="M0 0 C1.66611905 -0.042721 3.33382885 -0.04063832 5 0 C6 1 6 1 6.0625 3.5625 C6.041875 4.366875 6.02125 5.17125 6 6 C4.02 6 2.04 6 0 6 C0 4.02 0 2.04 0 0 Z " fill="#888888" transform="translate(152,94)"/>
<path d="M0 0 C1.2065625 0.0309375 1.2065625 0.0309375 2.4375 0.0625 C2.4375 2.0425 2.4375 4.0225 2.4375 6.0625 C0.4575 6.0625 -1.5225 6.0625 -3.5625 6.0625 C-3.605221 4.39638095 -3.60313832 2.72867115 -3.5625 1.0625 C-2.5625 0.0625 -2.5625 0.0625 0 0 Z " fill="#252525" transform="translate(149.5625,52.9375)"/>
<path d="M0 0 C1.2065625 0.0309375 1.2065625 0.0309375 2.4375 0.0625 C2.4375 2.0425 2.4375 4.0225 2.4375 6.0625 C0.7875 6.0625 -0.8625 6.0625 -2.5625 6.0625 C-2.94468767 4.40635343 -3.27645102 2.73792976 -3.5625 1.0625 C-2.5625 0.0625 -2.5625 0.0625 0 0 Z " fill="#888888" transform="translate(149.5625,99.9375)"/>
<path d="M0 0 C1.9375 0.3125 1.9375 0.3125 4 1 C4.33 1.99 4.66 2.98 5 4 C6.65 4.33 8.3 4.66 10 5 C10 3.35 10 1.7 10 0 C10.33 0 10.66 0 11 0 C11 1.98 11 3.96 11 6 C9.35425434 6.02688151 7.70838587 6.04634123 6.0625 6.0625 C5.14597656 6.07410156 4.22945312 6.08570312 3.28515625 6.09765625 C1 6 1 6 0 5 C-0.04063832 3.33382885 -0.042721 1.66611905 0 0 Z " fill="#C3C3C3" transform="translate(147,65)"/>
<path d="M0 0 C0.33 0 0.66 0 1 0 C1 3.63 1 7.26 1 11 C2.65 11 4.3 11 6 11 C6 11.33 6 11.66 6 12 C4.35 12 2.7 12 1 12 C1 15.63 1 19.26 1 23 C0.67 23 0.34 23 0 23 C0 19.37 0 15.74 0 12 C-1.65 12 -3.3 12 -5 12 C-5 11.67 -5 11.34 -5 11 C-3.35 11 -1.7 11 0 11 C0 7.37 0 3.74 0 0 Z " fill="#737473" transform="translate(163,135)"/>
<path d="M0 0 C0.66 0 1.32 0 2 0 C2 1.65 2 3.3 2 5 C3.65 4.34 5.3 3.68 7 3 C8.12880057 6.31114834 9.21302675 9.58978257 10 13 C9.01 13 8.02 13 7 13 C7 10.69 7 8.38 7 6 C5.02 6 3.04 6 1 6 C0.67 4.02 0.34 2.04 0 0 Z " fill="#B0C8C9" transform="translate(140,151)"/>
<path d="M0 0 C3.3 0 6.6 0 10 0 C10.33 1.65 10.66 3.3 11 5 C10.67 4.34 10.34 3.68 10 3 C8.72125 3.020625 7.4425 3.04125 6.125 3.0625 C2.25 3.125 2.25 3.125 0 2 C0 1.34 0 0.68 0 0 Z " fill="#898989" transform="translate(118,100)"/>
<path d="M0 0 C-0.33 1.65 -0.66 3.3 -1 5 C-2.65 5 -4.3 5 -6 5 C-6 3.35 -6 1.7 -6 0 C-3.50907189 -1.24546405 -2.58919267 -0.7767578 0 0 Z " fill="#BBBBBB" transform="translate(158,89)"/>
<path d="M0 0 C1.98 0 3.96 0 6 0 C5.67 1.98 5.34 3.96 5 6 C3.35 6 1.7 6 0 6 C0 4.02 0 2.04 0 0 Z " fill="#71858A" transform="translate(129,170)"/>
<path d="M0 0 C2.31 0.33 4.62 0.66 7 1 C7 1.99 7 2.98 7 4 C4.59454362 5.20272819 3.05003047 5.10071472 0.375 5.0625 C-0.85089844 5.04896484 -0.85089844 5.04896484 -2.1015625 5.03515625 C-3.04128906 5.01775391 -3.04128906 5.01775391 -4 5 C-2.68 4.67 -1.36 4.34 0 4 C0 2.68 0 1.36 0 0 Z " fill="#B9BBAC" transform="translate(35,84)"/>
<path d="M0 0 C1.65 0 3.3 0 5 0 C5 1.98 5 3.96 5 6 C3.35 6 1.7 6 0 6 C0 4.02 0 2.04 0 0 Z " fill="#19D819" transform="translate(112,176)"/>
<path d="M0 0 C2.64 0 5.28 0 8 0 C7.67 1.32 7.34 2.64 7 4 C4.69 4 2.38 4 0 4 C0 2.68 0 1.36 0 0 Z " fill="#7E7E7E" transform="translate(65,177)"/>
<path d="M0 0 C1.98 0 3.96 0 6 0 C6 1.65 6 3.3 6 5 C4.02 5 2.04 5 0 5 C0 3.35 0 1.7 0 0 Z " fill="#F0F0F0" transform="translate(41,153)"/>
<path d="M0 0 C1.98 0 3.96 0 6 0 C6 1.65 6 3.3 6 5 C4.02 5 2.04 5 0 5 C0 3.35 0 1.7 0 0 Z " fill="#F7F7F7" transform="translate(64,141)"/>
<path d="M0 0 C1.65 0 3.3 0 5 0 C5 1.98 5 3.96 5 6 C3.35 6 1.7 6 0 6 C0 4.02 0 2.04 0 0 Z " fill="#F5F5F5" transform="translate(59,135)"/>
<path d="M0 0 C1.98 0 3.96 0 6 0 C6 1.65 6 3.3 6 5 C4.02 5 2.04 5 0 5 C0 3.35 0 1.7 0 0 Z " fill="#BBBBBB" transform="translate(41,118)"/>
<path d="M0 0 C1.98 0 3.96 0 6 0 C6 1.65 6 3.3 6 5 C4.02 5 2.04 5 0 5 C0 3.35 0 1.7 0 0 Z " fill="#858585" transform="translate(35,118)"/>
<path d="M0 0 C1.65 0 3.3 0 5 0 C5 1.98 5 3.96 5 6 C3.35 6 1.7 6 0 6 C0 4.02 0 2.04 0 0 Z " fill="#848484" transform="translate(164,94)"/>
<path d="M0 0 C1.98 0 3.96 0 6 0 C6 0.99 6 1.98 6 3 C5.01 3.495 5.01 3.495 4 4 C4.33 4.66 4.66 5.32 5 6 C3.35 6 1.7 6 0 6 C0 4.02 0 2.04 0 0 Z " fill="#20C922" transform="translate(70,82)"/>
<path d="M0 0 C1.65 0 3.3 0 5 0 C5.66 1.98 6.32 3.96 7 6 C5.35 6 3.7 6 2 6 C2 5.01 2 4.02 2 3 C0.68 2.67 -0.64 2.34 -2 2 C-1.34 2 -0.68 2 0 2 C0 1.34 0 0.68 0 0 Z " fill="#0C0A11" transform="translate(57,62)"/>
<path d="M0 0 C1.98 0 3.96 0 6 0 C6 1.65 6 3.3 6 5 C4.02 5 2.04 5 0 5 C0 3.35 0 1.7 0 0 Z " fill="#72856E" transform="translate(76,42)"/>
<path d="M0 0 C2.64 0 5.28 0 8 0 C8.33 1.32 8.66 2.64 9 4 C6.1875 4.25 6.1875 4.25 3 4 C1.125 2 1.125 2 0 0 Z " fill="#030503" transform="translate(125,177)"/>
<path d="M0 0 C0.66 0 1.32 0 2 0 C2.99 2.31 3.98 4.62 5 7 C3.35 7.33 1.7 7.66 0 8 C-0.38063221 5.6739143 -0.71269945 3.33944736 -1 1 C-0.67 0.67 -0.34 0.34 0 0 Z " fill="#0BFAF2" transform="translate(113,131)"/>
<path d="M0 0 C1.65 0 3.3 0 5 0 C5.33 1.65 5.66 3.3 6 5 C4.02 5 2.04 5 0 5 C0 3.35 0 1.7 0 0 Z " fill="#F8F8F8" transform="translate(123,83)"/>
<path d="M0 0 C1.65 0 3.3 0 5 0 C5.5625 1.9375 5.5625 1.9375 6 4 C5 5 5 5 2.4375 5.0625 C1.2309375 5.0315625 1.2309375 5.0315625 0 5 C0 3.35 0 1.7 0 0 Z " fill="#BBBBBB" transform="translate(47,124)"/>
<path d="M0 0 C1.65322266 0.01740234 1.65322266 0.01740234 3.33984375 0.03515625 C4.99693359 0.04869141 4.99693359 0.04869141 6.6875 0.0625 C7.54214844 0.07410156 8.39679688 0.08570312 9.27734375 0.09765625 C9.27734375 0.42765625 9.27734375 0.75765625 9.27734375 1.09765625 C6.96734375 1.09765625 4.65734375 1.09765625 2.27734375 1.09765625 C2.27734375 1.75765625 2.27734375 2.41765625 2.27734375 3.09765625 C-1.02265625 3.09765625 -4.32265625 3.09765625 -7.72265625 3.09765625 C-6.40265625 2.43765625 -5.08265625 1.77765625 -3.72265625 1.09765625 C-2.72265625 0.09765625 -2.72265625 0.09765625 0 0 Z " fill="#908A8E" transform="translate(101.72265625,87.90234375)"/>
<path d="M0 0 C1.65 0 3.3 0 5 0 C5.33 0.99 5.66 1.98 6 3 C5.67 3.66 5.34 4.32 5 5 C3.35 5 1.7 5 0 5 C0 3.35 0 1.7 0 0 Z " fill="#BCBCBC" transform="translate(64,118)"/>
<path d="M0 0 C0.99 0 1.98 0 3 0 C3 0.99 3 1.98 3 3 C4.65 3 6.3 3 8 3 C8 3.33 8 3.66 8 4 C-0.415 4.495 -0.415 4.495 -9 5 C-9 4.34 -9 3.68 -9 3 C-6.03 3 -3.06 3 0 3 C0 2.01 0 1.02 0 0 Z " fill="#758A80" transform="translate(62,48)"/>
<path d="M0 0 C2.475 0.495 2.475 0.495 5 1 C4.67 2.65 4.34 4.3 4 6 C2.68 6 1.36 6 0 6 C0 4.02 0 2.04 0 0 Z " fill="#BDBDBD" transform="translate(53,129)"/>
<path d="M0 0 C1.65 0 3.3 0 5 0 C5 1.65 5 3.3 5 5 C3.02 5 1.04 5 -1 5 C-0.67 3.35 -0.34 1.7 0 0 Z " fill="#808080" transform="translate(65,124)"/>
<path d="M0 0 C0.99 0 1.98 0 3 0 C3 2.64 3 5.28 3 8 C2.01 8.33 1.02 8.66 0 9 C0 6.03 0 3.06 0 0 Z " fill="#898584" transform="translate(78,100)"/>
<path d="M0 0 C1.98 0 3.96 0 6 0 C6 1.65 6 3.3 6 5 C4.68 5 3.36 5 2 5 C2 4.34 2 3.68 2 3 C1.34 3 0.68 3 0 3 C0 2.01 0 1.02 0 0 Z " fill="#B8BFAE" transform="translate(76,95)"/>
<path d="M0 0 C1.98 0 3.96 0 6 0 C5.67 1.65 5.34 3.3 5 5 C3.35 5 1.7 5 0 5 C0 3.35 0 1.7 0 0 Z " fill="#848484" transform="translate(135,89)"/>
<path d="M0 0 C5.61 0 11.22 0 17 0 C17 1.65 17 3.3 17 5 C16.67 4.34 16.34 3.68 16 3 C12.68455701 1.89485234 9.79589889 1.67892369 6.3125 1.4375 C5.13300781 1.35371094 3.95351563 1.26992187 2.73828125 1.18359375 C1.83464844 1.12300781 0.93101563 1.06242187 0 1 C0 0.67 0 0.34 0 0 Z " fill="#DFE5DD" transform="translate(18,71)"/>
<path d="M0 0 C1.65 0 3.3 0 5 0 C5 1.65 5 3.3 5 5 C3.35 5.33 1.7 5.66 0 6 C0 4.02 0 2.04 0 0 Z " fill="#B4C2C8" transform="translate(41,65)"/>
<path d="M0 0 C1.65 0 3.3 0 5 0 C5 1.65 5 3.3 5 5 C3.35 5 1.7 5 0 5 C0 3.35 0 1.7 0 0 Z " fill="#181A1C" transform="translate(152,159)"/>
<path d="M0 0 C1.65 0 3.3 0 5 0 C5 1.65 5 3.3 5 5 C3.35 5 1.7 5 0 5 C0 3.35 0 1.7 0 0 Z " fill="#F5F5F5" transform="translate(47,159)"/>
<path d="M0 0 C1.65 0 3.3 0 5 0 C5 1.65 5 3.3 5 5 C3.35 5 1.7 5 0 5 C0 3.35 0 1.7 0 0 Z " fill="#888888" transform="translate(41,159)"/>
<path d="M0 0 C1.65 0 3.3 0 5 0 C5 1.65 5 3.3 5 5 C3.35 5 1.7 5 0 5 C0 3.35 0 1.7 0 0 Z " fill="#FAFAFA" transform="translate(53,153)"/>
<path d="M0 0 C1.65 0 3.3 0 5 0 C5 1.65 5 3.3 5 5 C3.35 5 1.7 5 0 5 C0 3.35 0 1.7 0 0 Z " fill="#F8F8F8" transform="translate(47,147)"/>
<path d="M0 0 C1.65 0 3.3 0 5 0 C5 1.65 5 3.3 5 5 C3.35 5 1.7 5 0 5 C0 3.35 0 1.7 0 0 Z " fill="#F9F9F9" transform="translate(59,147)"/>
<path d="M0 0 C1.65 0 3.3 0 5 0 C5 1.65 5 3.3 5 5 C3.35 5 1.7 5 0 5 C0 3.35 0 1.7 0 0 Z " fill="#7F7F7F" transform="translate(47,141)"/>
<path d="M0 0 C1.65 0 3.3 0 5 0 C5 1.65 5 3.3 5 5 C3.35 5 1.7 5 0 5 C0 3.35 0 1.7 0 0 Z " fill="#818181" transform="translate(53,135)"/>
<path d="M0 0 C1.65 0 3.3 0 5 0 C5 1.65 5 3.3 5 5 C3.35 5 1.7 5 0 5 C0 3.35 0 1.7 0 0 Z " fill="#F9F9F9" transform="translate(65,130)"/>
<path d="M0 0 C1.65 0 3.3 0 5 0 C5 1.65 5 3.3 5 5 C3.35 5 1.7 5 0 5 C0 3.35 0 1.7 0 0 Z " fill="#BCBCBC" transform="translate(30,130)"/>
<path d="M0 0 C1.65 0 3.3 0 5 0 C5 1.65 5 3.3 5 5 C3.35 5 1.7 5 0 5 C0 3.35 0 1.7 0 0 Z " fill="#C2C2C2" transform="translate(71,130)"/>
<path d="M0 0 C1.65 0 3.3 0 5 0 C5 1.65 5 3.3 5 5 C3.35 5 1.7 5 0 5 C0 3.35 0 1.7 0 0 Z " fill="#828282" transform="translate(41,124)"/>
<path d="M0 0 C1.65 0 3.3 0 5 0 C5 1.65 5 3.3 5 5 C3.35 5 1.7 5 0 5 C0 3.35 0 1.7 0 0 Z " fill="#FAFAFA" transform="translate(71,124)"/>
<path d="M0 0 C1.65 0 3.3 0 5 0 C5 1.65 5 3.3 5 5 C3.35 5 1.7 5 0 5 C0 3.35 0 1.7 0 0 Z " fill="#C1C1C1" transform="translate(59,124)"/>
<path d="M0 0 C1.65 0 3.3 0 5 0 C5 1.65 5 3.3 5 5 C3.35 5 1.7 5 0 5 C0 3.35 0 1.7 0 0 Z " fill="#C1C1C1" transform="translate(53,118)"/>
<path d="M0 0 C1.65 0 3.3 0 5 0 C5 1.65 5 3.3 5 5 C3.35 5 1.7 5 0 5 C0 3.35 0 1.7 0 0 Z " fill="#828282" transform="translate(47,118)"/>
<path d="M0 0 C1.65 0 3.3 0 5 0 C5.33 0.66 5.66 1.32 6 2 C5.67 2.99 5.34 3.98 5 5 C3.35 4.67 1.7 4.34 0 4 C0 2.68 0 1.36 0 0 Z " fill="#828282" transform="translate(71,118)"/>
<path d="M0 0 C1.65 0 3.3 0 5 0 C5 1.65 5 3.3 5 5 C3.35 5 1.7 5 0 5 C0 3.35 0 1.7 0 0 Z " fill="#7F7F7F" transform="translate(59,118)"/>
<path d="M0 0 C1.65 0 3.3 0 5 0 C5 1.65 5 3.3 5 5 C3.35 5 1.7 5 0 5 C0 3.35 0 1.7 0 0 Z " fill="#818181" transform="translate(53,112)"/>
<path d="M0 0 C1.65 0 3.3 0 5 0 C5 1.65 5 3.3 5 5 C3.35 5 1.7 5 0 5 C0 3.35 0 1.7 0 0 Z " fill="#858585" transform="translate(135,100)"/>
<path d="M0 0 C1.65 0 3.3 0 5 0 C5 1.65 5 3.3 5 5 C3.35 5 1.7 5 0 5 C0 3.35 0 1.7 0 0 Z " fill="#BFBFBF" transform="translate(147,94)"/>
<path d="M0 0 C1.65 0 3.3 0 5 0 C5 1.65 5 3.3 5 5 C3.35 5 1.7 5 0 5 C0 3.35 0 1.7 0 0 Z " fill="#7F7F7F" transform="translate(129,95)"/>
<path d="M0 0 C1.65 0 3.3 0 5 0 C5 1.65 5 3.3 5 5 C3.35 5 1.7 5 0 5 C0 3.35 0 1.7 0 0 Z " fill="#828282" transform="translate(141,83)"/>
<path d="M0 0 C1.65 0 3.3 0 5 0 C5 1.65 5 3.3 5 5 C3.35 5 1.7 5 0 5 C0 3.35 0 1.7 0 0 Z " fill="#BEBEBE" transform="translate(129,83)"/>
<path d="M0 0 C1.65 0 3.3 0 5 0 C5 1.65 5 3.3 5 5 C3.35 5 1.7 5 0 5 C0 3.35 0 1.7 0 0 Z " fill="#BEBEBE" transform="translate(158,83)"/>
<path d="M0 0 C1.65 0 3.3 0 5 0 C5 1.65 5 3.3 5 5 C3.35 5 1.7 5 0 5 C0 3.35 0 1.7 0 0 Z " fill="#818181" transform="translate(147,77)"/>
<path d="M0 0 C1.65 0 3.3 0 5 0 C5 1.65 5 3.3 5 5 C3.35 5 1.7 5 0 5 C0 3.35 0 1.7 0 0 Z " fill="#838383" transform="translate(158,77)"/>
<path d="M0 0 C1.65 0 3.3 0 5 0 C5 1.65 5 3.3 5 5 C3.35 5 1.7 5 0 5 C0 3.35 0 1.7 0 0 Z " fill="#F5F5F5" transform="translate(141,77)"/>
<path d="M0 0 C1.65 0 3.3 0 5 0 C5 1.65 5 3.3 5 5 C3.35 5 1.7 5 0 5 C0 3.35 0 1.7 0 0 Z " fill="#C4C4C4" transform="translate(135,77)"/>
<path d="M0 0 C1.65 0 3.3 0 5 0 C5 1.65 5 3.3 5 5 C3.35 5 1.7 5 0 5 C0 3.35 0 1.7 0 0 Z " fill="#F9F9F9" transform="translate(129,77)"/>
<path d="M0 0 C1.65 0 3.3 0 5 0 C5 1.65 5 3.3 5 5 C3.35 5 1.7 5 0 5 C0 3.35 0 1.7 0 0 Z " fill="#C3C3C3" transform="translate(141,71)"/>
<path d="M0 0 C1.65 0 3.3 0 5 0 C5 1.65 5 3.3 5 5 C3.35 5 1.7 5 0 5 C0 3.35 0 1.7 0 0 Z " fill="#C4BFC0" transform="translate(53,71)"/>
<path d="M0 0 C1.65 0 3.3 0 5 0 C5 1.65 5 3.3 5 5 C3.35 5 1.7 5 0 5 C0 3.35 0 1.7 0 0 Z " fill="#F7F7F7" transform="translate(18,48)"/>
<path d="M0 0 C1.32 0 2.64 0 4 0 C4 1.65 4 3.3 4 5 C2.35 5 0.7 5 -1 5 C-0.67 3.35 -0.34 1.7 0 0 Z " fill="#C0C0C0" transform="translate(48,135)"/>
<path d="M0 0 C2.64 0 5.28 0 8 0 C8 0.99 8 1.98 8 3 C5.36 3 2.72 3 0 3 C0 2.01 0 1.02 0 0 Z " fill="#838481" transform="translate(88,132)"/>
<path d="M0 0 C2.475 0.495 2.475 0.495 5 1 C5 2.32 5 3.64 5 5 C3.35 5 1.7 5 0 5 C0 3.35 0 1.7 0 0 Z " fill="#848481" transform="translate(82,124)"/>
<path d="M0 0 C1.65 0 3.3 0 5 0 C4.67 1.65 4.34 3.3 4 5 C2.68 5 1.36 5 0 5 C0 3.35 0 1.7 0 0 Z " fill="#808181" transform="translate(65,112)"/>
<path d="M0 0 C2.97 0 5.94 0 9 0 C7.02 0.99 7.02 0.99 5 2 C5.33 2.99 5.66 3.98 6 5 C3.03 4.505 3.03 4.505 0 4 C0 2.68 0 1.36 0 0 Z " fill="#A4CBBD" transform="translate(65,89)"/>
<path d="M0 0 C1.32 0 2.64 0 4 0 C4 1.65 4 3.3 4 5 C2.35 5 0.7 5 -1 5 C-0.67 3.35 -0.34 1.7 0 0 Z " fill="#BEBEBE" transform="translate(165,89)"/>
<path d="M0 0 C1.65 0 3.3 0 5 0 C5 1.65 5 3.3 5 5 C3.35 4.67 1.7 4.34 0 4 C0 2.68 0 1.36 0 0 Z " fill="#7F7F7F" transform="translate(147,89)"/>
<path d="M0 0 C1.66611905 -0.042721 3.33382885 -0.04063832 5 0 C6 1 6 1 6.0625 3.5625 C6.041875 4.366875 6.02125 5.17125 6 6 C4.68 5.34 3.36 4.68 2 4 C2 3.34 2 2.68 2 2 C1.34 2 0.68 2 0 2 C0 1.34 0 0.68 0 0 Z " fill="#05F64D" transform="translate(76,82)"/>
<path d="M0 0 C1.32 0 2.64 0 4 0 C4 1.65 4 3.3 4 5 C2.35 5 0.7 5 -1 5 C-0.67 3.35 -0.34 1.7 0 0 Z " fill="#7A7A7A" transform="translate(154,71)"/>
<path d="M0 0 C2.475 0.495 2.475 0.495 5 1 C5 2.32 5 3.64 5 5 C3.35 5 1.7 5 0 5 C0 3.35 0 1.7 0 0 Z " fill="#FAFAFA" transform="translate(135,71)"/>
<path d="M0 0 C2.475 0.495 2.475 0.495 5 1 C5 2.32 5 3.64 5 5 C3.35 5 1.7 5 0 5 C0 3.35 0 1.7 0 0 Z " fill="#F9F9F9" transform="translate(141,65)"/>
<path d="M0 0 C1.65 0 3.3 0 5 0 C5 1.65 5 3.3 5 5 C3.35 4.67 1.7 4.34 0 4 C0 2.68 0 1.36 0 0 Z " fill="#F7F7F7" transform="translate(146,60)"/>
<path d="M0 0 C0.99 0.33 1.98 0.66 3 1 C3 3.64 3 6.28 3 9 C1.68 8.67 0.36 8.34 -1 8 C-0.34 8 0.32 8 1 8 C0.67 5.36 0.34 2.72 0 0 Z " fill="#F2FD0D" transform="translate(106,172)"/>
<path d="M0 0 C1.98 0 3.96 0 6 0 C6 0.99 6 1.98 6 3 C4.02 3.66 2.04 4.32 0 5 C0 3.35 0 1.7 0 0 Z " fill="#777D7F" transform="translate(111,124)"/>
<path d="M0 0 C1.98 0 3.96 0 6 0 C5.67 0.99 5.34 1.98 5 3 C4.01 3 3.02 3 2 3 C2 3.99 2 4.98 2 6 C1.34 6 0.68 6 0 6 C0 4.02 0 2.04 0 0 Z " fill="#D5DAD9" transform="translate(146,170)"/>
<path d="M0 0 C1.32 0 2.64 0 4 0 C4 1.65 4 3.3 4 5 C2.35 5 0.7 5 -1 5 C-0.67 3.35 -0.34 1.7 0 0 Z " fill="#808080" transform="translate(48,130)"/>
<path d="M0 0 C1.32 0 2.64 0 4 0 C4.33 3.63 4.66 7.26 5 11 C4.67 9.68 4.34 8.36 4 7 C3.34 7 2.68 7 2 7 C2 5.02 2 3.04 2 1 C1.34 0.67 0.68 0.34 0 0 Z " fill="#888592" transform="translate(30,77)"/>
<path d="M0 0 C0.33 1.32 0.66 2.64 1 4 C4.63 4 8.26 4 12 4 C12 4.33 12 4.66 12 5 C8.37 5 4.74 5 1 5 C1 6.65 1 8.3 1 10 C0.67 10 0.34 10 0 10 C-0.74926071 6.33694766 -1.2380014 3.57644848 0 0 Z " fill="#D7D7D7" transform="translate(140,72)"/>
<path d="M0 0 C1.53445094 3.06890187 0.54984289 5.70094266 0 9 C-0.66 9 -1.32 9 -2 9 C-2.66 8.34 -3.32 7.68 -4 7 C-4 6.01 -4 5.02 -4 4 C-3.34 4 -2.68 4 -2 4 C-1.34 2.68 -0.68 1.36 0 0 Z " fill="#B4B8B8" transform="translate(152,155)"/>
<path d="M0 0 C1.65 0 3.3 0 5 0 C5.33 1.65 5.66 3.3 6 5 C5.34 5 4.68 5 4 5 C4 4.34 4 3.68 4 3 C2.68 3 1.36 3 0 3 C0 2.01 0 1.02 0 0 Z " fill="#CBBBCB" transform="translate(70,107)"/>
<path d="M0 0 C3.63 0 7.26 0 11 0 C11 0.33 11 0.66 11 1 C8.36 1.33 5.72 1.66 3 2 C2.67 2.99 2.34 3.98 2 5 C1.34 5 0.68 5 0 5 C0 3.35 0 1.7 0 0 Z " fill="#021E02" transform="translate(53,60)"/>
<path d="M0 0 C1.65 0 3.3 0 5 0 C5 1.32 5 2.64 5 4 C3.35 4 1.7 4 0 4 C0 2.68 0 1.36 0 0 Z " fill="#828282" transform="translate(47,165)"/>
<path d="M0 0 C1.65 0 3.3 0 5 0 C5 1.32 5 2.64 5 4 C3.35 4 1.7 4 0 4 C0 2.68 0 1.36 0 0 Z " fill="#BFBFBF" transform="translate(53,148)"/>
<path d="M0 0 C1.65 0 3.3 0 5 0 C5 1.32 5 2.64 5 4 C3.35 4 1.7 4 0 4 C0 2.68 0 1.36 0 0 Z " fill="#FAFAFA" transform="translate(53,142)"/>
<path d="M0 0 C1.65 0 3.3 0 5 0 C5 1.32 5 2.64 5 4 C3.35 4 1.7 4 0 4 C0 2.68 0 1.36 0 0 Z " fill="#BEBEBE" transform="translate(59,142)"/>
<path d="M0 0 C1.32 0 2.64 0 4 0 C4 1.65 4 3.3 4 5 C2.68 5 1.36 5 0 5 C0 3.35 0 1.7 0 0 Z " fill="#B6C7B4" transform="translate(106,135)"/>
<path d="M0 0 C1.32 0 2.64 0 4 0 C4 1.65 4 3.3 4 5 C2.68 5 1.36 5 0 5 C0 3.35 0 1.7 0 0 Z " fill="#C0C0C0" transform="translate(36,124)"/>
<path d="M0 0 C1.32 0 2.64 0 4 0 C4 1.65 4 3.3 4 5 C2.68 5 1.36 5 0 5 C0 3.35 0 1.7 0 0 Z " fill="#C2C2C2" transform="translate(30,118)"/>
<path d="M0 0 C1.32 0 2.64 0 4 0 C4 1.65 4 3.3 4 5 C2.68 5 1.36 5 0 5 C0 3.35 0 1.7 0 0 Z " fill="#7D7D7D" transform="translate(42,112)"/>
<path d="M0 0 C1.98 0 3.96 0 6 0 C6 1.98 6 3.96 6 6 C5.67 5.34 5.34 4.68 5 4 C4.34 4 3.68 4 3 4 C3 3.01 3 2.02 3 1 C2.34 1 1.68 1 1 1 C0.67 1.99 0.34 2.98 0 4 C0 2.68 0 1.36 0 0 Z " fill="#B4B4B4" transform="translate(152,100)"/>
<path d="M0 0 C1.32 0 2.64 0 4 0 C4 1.65 4 3.3 4 5 C2.68 5 1.36 5 0 5 C0 3.35 0 1.7 0 0 Z " fill="#818181" transform="translate(141,94)"/>
<path d="M0 0 C1.65 0 3.3 0 5 0 C5 1.32 5 2.64 5 4 C3.35 4 1.7 4 0 4 C0 2.68 0 1.36 0 0 Z " fill="#C0C0C0" transform="translate(135,95)"/>
<path d="M0 0 C2.31 0.33 4.62 0.66 7 1 C7 1.99 7 2.98 7 4 C5.02 4 3.04 4 1 4 C0.67 2.68 0.34 1.36 0 0 Z " fill="#B5BEBB" transform="translate(30,90)"/>
<path d="M0 0 C1.32 0 2.64 0 4 0 C4 1.65 4 3.3 4 5 C2.68 5 1.36 5 0 5 C0 3.35 0 1.7 0 0 Z " fill="#25F3E7" transform="translate(48,83)"/>
<path d="M0 0 C1.32 0 2.64 0 4 0 C4 1.65 4 3.3 4 5 C2.68 5 1.36 5 0 5 C0 3.35 0 1.7 0 0 Z " fill="#808080" transform="translate(153,83)"/>
<path d="M0 0 C1.32 0 2.64 0 4 0 C4 1.65 4 3.3 4 5 C2.68 5 1.36 5 0 5 C0 3.35 0 1.7 0 0 Z " fill="#FAFAFA" transform="translate(135,83)"/>
<path d="M0 0 C1.32 0 2.64 0 4 0 C4 1.65 4 3.3 4 5 C2.68 5 1.36 5 0 5 C0 3.35 0 1.7 0 0 Z " fill="#7F7F79" transform="translate(41,60)"/>
<path d="M0 0 C2.475 0.495 2.475 0.495 5 1 C5 4.3 5 7.6 5 11 C4.67 11 4.34 11 4 11 C3.67 8.36 3.34 5.72 3 3 C2.01 2.67 1.02 2.34 0 2 C0 1.34 0 0.68 0 0 Z " fill="#3CEA36" transform="translate(106,141)"/>
<path d="M0 0 C1.65 0 3.3 0 5 0 C4.67 1.32 4.34 2.64 4 4 C2.68 4 1.36 4 0 4 C0 2.68 0 1.36 0 0 Z " fill="#7B7B7B" transform="translate(59,130)"/>
<path d="M0 0 C1.98 0.495 1.98 0.495 4 1 C4 2.32 4 3.64 4 5 C2.35 5 0.7 5 -1 5 C-0.67 3.35 -0.34 1.7 0 0 Z " fill="#C1C1C1" transform="translate(71,112)"/>
<path d="M0 0 C2.475 0.495 2.475 0.495 5 1 C5 1.99 5 2.98 5 4 C3.35 4 1.7 4 0 4 C0 2.68 0 1.36 0 0 Z " fill="#818981" transform="translate(82,95)"/>
<path d="M0 0 C1.32 0.33 2.64 0.66 4 1 C4.33 2.32 4.66 3.64 5 5 C3.35 5 1.7 5 0 5 C0 3.35 0 1.7 0 0 Z " fill="#FAFAFA" transform="translate(129,88)"/>
<path d="M0 0 C0.33 0.99 0.66 1.98 1 3 C0.01 3.33 -0.98 3.66 -2 4 C-2 4.66 -2 5.32 -2 6 C-2.99 6 -3.98 6 -5 6 C-5 4.68 -5 3.36 -5 2 C-3.35 2 -1.7 2 0 2 C0 1.34 0 0.68 0 0 Z " fill="#1FF1E6" transform="translate(41,75)"/>
<path d="M0 0 C1.65 0 3.3 0 5 0 C5 1.65 5 3.3 5 5 C4.01 5 3.02 5 2 5 C1.34 3.35 0.68 1.7 0 0 Z " fill="#F5F5F5" transform="translate(12,65)"/>
<path d="M0 0 C1.65 0 3.3 0 5 0 C4.01 0.495 4.01 0.495 3 1 C3.33 2.32 3.66 3.64 4 5 C2.68 5 1.36 5 0 5 C0 3.35 0 1.7 0 0 Z " fill="#F2F530" transform="translate(94,176)"/>
<path d="M0 0 C1.65 0 3.3 0 5 0 C5 1.32 5 2.64 5 4 C3.35 4 1.7 4 0 4 C0 2.68 0 1.36 0 0 Z " fill="#BCBCBC" transform="translate(65,136)"/>
<path d="M0 0 C-0.33 0.99 -0.66 1.98 -1 3 C-1.9590625 3.2165625 -1.9590625 3.2165625 -2.9375 3.4375 C-5.20311706 3.80104993 -5.20311706 3.80104993 -6.25 6.0625 C-6.4975 6.701875 -6.745 7.34125 -7 8 C-7.25 5.6875 -7.25 5.6875 -7 3 C-4.51960083 0.51960083 -3.55547616 0 0 0 Z " fill="#5DA3AB" transform="translate(117,127)"/>
<path d="M0 0 C1.32 0 2.64 0 4 0 C4 0.99 4 1.98 4 3 C4.66 3 5.32 3 6 3 C5.67 3.99 5.34 4.98 5 6 C2.5 4.6875 2.5 4.6875 0 3 C0 2.01 0 1.02 0 0 Z " fill="#B1C8CA" transform="translate(118,130)"/>
<path d="M0 0 C2.475 0.495 2.475 0.495 5 1 C4.67 1.99 4.34 2.98 4 4 C2.68 4 1.36 4 0 4 C0 2.68 0 1.36 0 0 Z " fill="#22F4F2" transform="translate(65,95)"/>
<path d="M0 0 C2.475 0.495 2.475 0.495 5 1 C5 1.99 5 2.98 5 4 C3.35 4 1.7 4 0 4 C0 2.68 0 1.36 0 0 Z " fill="#7B8379" transform="translate(89,90)"/>
<path d="M0 0 C0.66 0.33 1.32 0.66 2 1 C2 2.65 2 4.3 2 6 C0.68 6 -0.64 6 -2 6 C-1.34 4.02 -0.68 2.04 0 0 Z " fill="#0F080A" transform="translate(33,64)"/>
<path d="M0 0 C0.66 0 1.32 0 2 0 C2.33 0.99 2.66 1.98 3 3 C5.00016466 4.20882096 5.00016466 4.20882096 7 5 C7 5.33 7 5.66 7 6 C5.35 6 3.7 6 2 6 C1.34 4.02 0.68 2.04 0 0 Z " fill="#71DDDA" transform="translate(116,130)"/>
<path d="M0 0 C1.98 0 3.96 0 6 0 C6 1.32 6 2.64 6 4 C4.68 3.67 3.36 3.34 2 3 C2 2.34 2 1.68 2 1 C1.34 0.67 0.68 0.34 0 0 Z " fill="#C8BFC1" transform="translate(68,90)"/>
<path d="M0 0 C1.32 0 2.64 0 4 0 C4 1.32 4 2.64 4 4 C2.68 4.33 1.36 4.66 0 5 C0 3.35 0 1.7 0 0 Z " fill="#7D7D7D" transform="translate(159,89)"/>
<path d="M0 0 C1.32 0 2.64 0 4 0 C4 1.32 4 2.64 4 4 C2.35 4 0.7 4 -1 4 C-0.67 2.68 -0.34 1.36 0 0 Z " fill="#F7F7F7" transform="translate(153,66)"/>
</svg>
